<?xml version="1.0" encoding="utf-8"?>
<!-- Generator: Adobe Illustrator 21.1.0, SVG Export Plug-In . SVG Version: 6.00 Build 0)  -->
<svg version="1.1" id="Calque_1" xmlns="http://www.w3.org/2000/svg" xmlns:xlink="http://www.w3.org/1999/xlink" x="0px" y="0px"
	 viewBox="0 0 821 586.5" style="enable-background:new 0 0 821 586.5;" xml:space="preserve">
<style type="text/css">
	.st0{fill:#1E1E1E;}
	.st1{fill:#F5E8D2;}
	.st2{fill:#EA6263;}
	.st3{fill:#E64067;}
	.st4{fill:#492D61;}
	.st5{fill:#6A7F85;}
	.st6{fill:#3E1C46;}
	.st7{fill:#F6B586;}
	.st8{fill:#9D9F94;}
	.st9{fill:#6D5D73;}
	.st10{fill:#AAA99B;}
	.st11{fill:#AEAFA9;}
	.st12{fill:#AFADA5;}
	.st13{fill:#F98A9C;}
	.st14{fill:#F06E8D;}
	.st15{fill:#F68697;}
	.st16{fill:#F88397;}
	.st17{fill:#4A2457;}
	.st18{fill:#DABBA8;}
	.st19{fill:#F0CAA9;}
	.st20{fill:#F98C9C;}
	.st21{fill:#F4CAA6;}
	.st22{fill:#CCB1A6;}
	.st23{fill:#C5AAA0;}
	.st24{fill:#858B8E;}
</style>
<g id="Vagues">
	<path class="st0" d="M663.7,414.2c0,1.7,0,3.3,0,5c-6.7,2-13.3,4-20,6c-10.1,2.3-20.3,4.4-30.6,2.8c-9.8-1.6-19.4-4.2-29.1-6.5
		c-8.6-2-17-5.5-25.7-6c-17.2-0.9-34.6-1.9-51.1,5.1c-2.3,1-4.7,1.6-7.1,2.4c-18.4,6-37,7.6-55.9,2.4c-7.8-2.2-15.7-4.1-23.6-6.2
		c-1.3-2.6-2.6-5.3-3.8-7.9c1.7,0.6,3.3,1.3,5,1.9c6.9,4.8,14.1,8.9,23,8c2.9,0.1,5.8,0.1,8.8,0.2c6.7,0.5,13.7,2.3,20.1,1.2
		c12.9-2.2,25.5-5.6,38.1-9.2c16.4-4.6,32.8-7,49.6-3.1c13.7,3.2,27.3,7.1,41,10.4c12.9,3.1,25.9,3.9,38.6-1.3
		c2.2-0.4,4.5-0.7,6.7-1.2C653,416.8,658.4,415.5,663.7,414.2z"/>
	<path class="st0" d="M579.7,434.5c-0.7-0.1-1.3-0.2-2-0.3c-1.3-0.3-2.7-0.7-4-1c0,0,0,0,0,0c-20.1-7-40.2-7.4-60.3,0
		c-7.7,2.1-15.4,4.2-23,6.3c-17,4.8-33.9,3.4-50.6-1.1c-2.7-0.7-5.4-1.5-8.1-2.2c-1.3-2.4-2.6-4.7-4-7.1c4.6,1.3,9.2,2.8,13.9,3.9
		c11.6,2.8,23.4,5.8,35.4,3.2c11.5-2.5,22.9-5.4,34.2-8.8c17.5-5.1,35.1-7.2,53-2.6c11.4,2.9,22.8,6,34.2,8.9
		c13.8,3.5,27.6,5.1,41.4-0.3c7.9-2.1,15.9-4.2,23.8-6.2c0,2,0,4,0,6c-15.5,4.1-30.6,10.3-47.1,8.9c-7.2-0.6-14.4-2-21.6-3
		c-2.4-0.7-4.8-1.3-7.2-2c0,0,0,0,0,0C585.1,436.3,582.4,435.4,579.7,434.5z"/>
	<path class="st0" d="M334.7,445.1c-12.5,1.9-24.2,4.1-36.9,2.2c-11.4-1.7-22.6-5.4-33.8-8.2c-25.4-6.2-47.8-6.7-72.3,4c0,0,0,0,0,0
		c-14.2,4-30.5,6.6-45.2,4.7c-14.5-1.9-28.6-7.2-42.8-10.6c0-2,0-4,0-6c17.8,4.5,35.8,11.8,54.4,11.7c20.4-0.1,38.2-9.7,58-12.9
		c19.4-3.1,37.4-0.2,56,5.2c19.2,5.6,40.2,11.4,59.7,4C332.8,441.2,333.7,443.2,334.7,445.1z"/>
	<path class="st0" d="M156.4,429.1c28.4,1.2,53.5-16.4,82.3-14.7c28.8,1.7,57.9,21,87,12.9c0.7,1.7,1.4,3.4,2,5.1
		c-9.6,1-18.9,2.2-28.6,1.4c-9.1-0.7-17.6-3.9-26.3-6.5c-19-5.7-37.7-9-57.4-5.5c-18.4,3.3-35.6,10.7-54.5,12.5
		c-19.4,1.9-38.7-6.3-57.2-11c0-2,0-4,0-6"/>
	<path class="st0" d="M103.7,403.2c0.9,0,1.8,0.1,2.8,0.1c10,3,19.9,6.3,30.1,8.9c6.2,1.6,12.7,2.6,19.2,2.9
		c12.1,0.6,23.7-2.6,35.2-6.2c14.1-4.5,28.2-8.9,43.3-8.5c13.1,0.3,25.6,3.4,38.1,7c15.5,4.5,30.9,9.3,47.4,7
		c0.6,1.9,1.2,3.8,1.8,5.6c-18,2-35-2.3-51.9-7.7c-24.4-7.8-48.4-8.6-72.7,0.6c-23.1,8.8-46.3,10.1-69.7,2.9
		c-1.9-0.6-11-2.8-13.5-3.4c-3.4-0.8-6.7-2.1-10-3.1C103.7,407.2,103.7,405.2,103.7,403.2z"/>
	<path class="st0" d="M655.8,401.3c2.7-0.7,5.3-1.4,8-2.1c0,2,0,4,0,6c-4,1.3-8,2.6-12,3.9c-9.9,1.7-19.8,4.1-29.8,5
		c-12.2,1-24-2.8-35.7-5.8c-12-3.1-24.1-6.3-36.4-7.9c-16.9-2.2-32.8,3.3-48.8,8.1c-9.5,2.8-19.4,3.9-29.2,5.8c2.3-2,4.7-4,7-6
		c7.6-1.9,15.2-3.5,22.7-5.7c12.9-3.8,25.7-8,39.3-8.3c15.7-0.3,30.7,3.4,45.4,8.1c22,7.1,43.8,9.2,65.7,0.1
		C653.1,402.1,654.4,401.7,655.8,401.3z"/>
	<path class="st0" d="M499.7,446.2c8.1-2.7,16.1-5.9,24.3-7.9c20.6-5,40.5-0.6,60.1,5.4c1,0.3,1.7,1.7,2.5,2.5c-5.7,0-11.3,0-17,0
		c-3.1-0.9-6.2-2.1-9.4-2.6c-14.7-2.6-29.3-2.4-43.6,2.6C511.1,446.2,505.4,446.2,499.7,446.2z"/>
	<path class="st0" d="M651.7,446.2c2.1-1.1,4.2-2.3,6.4-3.2c1.8-0.8,3.7-1.2,5.6-1.8c0,1.7,0,3.3,0,5
		C659.7,446.2,655.7,446.2,651.7,446.2z"/>
</g>
<g id="JP2_1_">
	
		<image style="overflow:visible;opacity:0.18;" width="137" height="132" xlink:href="57FB49C0C0B04E85.png"  transform="matrix(1 0 0 1 467.748 51.2262)">
	</image>
	<g>
		<g>
			<defs>
				<circle id="SVGID_1_" cx="530.6" cy="111.1" r="45.1"/>
			</defs>
			<clipPath id="SVGID_2_">
				<use xlink:href="#SVGID_1_"  style="overflow:visible;"/>
			</clipPath>
			<g style="clip-path:url(#SVGID_2_);">
				
					<image style="overflow:visible;" width="1000" height="947" id="JP2_8_" xlink:href="../../../../EVANGELIZO/Communication Exte패rieure/Vide패o animation Orawa PROD/jean paul 2.jpg"  transform="matrix(0.75 0 0 0.75 280.748 334.2262)">
				</image>
			</g>
		</g>
	</g>
</g>
<g id="Frassatti">
	
		<image style="overflow:visible;opacity:0.18;" width="171" height="223" xlink:href="57FB49C0C0B04E8A.png"  transform="matrix(1 0 0 1 591.7479 123.2262)">
	</image>
	<g>
		<g>
			<defs>
				<circle id="SVGID_3_" cx="674" cy="203.7" r="65.6"/>
			</defs>
			<clipPath id="SVGID_4_">
				<use xlink:href="#SVGID_3_"  style="overflow:visible;"/>
			</clipPath>
			<g style="clip-path:url(#SVGID_4_);">
				
					<image style="overflow:visible;" width="2155" height="2956" id="Frassati_6_" xlink:href="../../../../EVANGELIZO/Communication Exte패rieure/Vide패o animation Orawa PROD/Giorgio Frassati (best).jpg"  transform="matrix(0.2308 0 0 0.2308 280.748 334.2262)">
				</image>
			</g>
		</g>
	</g>
</g>
<g id="Pelican_2_">
	
		<image style="overflow:visible;opacity:0.22;" width="553" height="396" xlink:href="57FB49C0C0B04E88.png"  transform="matrix(1 0 0 1 110.748 74.2262)">
	</image>
	<g>
		<g>
			<path class="st1" d="M587.8,437.1c2.4,0.7,4.8,1.3,7.2,2C592.6,438.5,590.2,437.8,587.8,437.1z"/>
			<path class="st1" d="M180.5,439.1c2.4-0.7,4.8-1.3,7.2-2C185.3,437.8,182.9,438.5,180.5,439.1z"/>
			<path class="st2" d="M548.9,269.2c10.7,4.6,21.4,9.2,32.1,13.8c-3.1-0.4-6.2-0.4-9.2-1.2c-7.6-2.1-15-4.6-22.5-6.7
				c-3.3-1-6.7-1.4-10-2.3c-10.7-3.1-21.4-6.5-32.1-9.4c-11.6-3.2-23.3-5.9-34.9-8.9c-14.9-3.9-29.8-7.8-44.6-11.9
				c-11.2-3.1-22.3-6.4-33.5-9.5c-16.6-4.6-33.2-9-49.8-13.5c-7.4-2-14.8-4.3-22.3-6.2c-6-1.6-12.1-2.8-18.1-4.3
				c-4.4-1.1-8.7-2.4-13.1-3.5c-8.3-2.2-16.6-4.2-24.8-6.5c-2.5-0.7-4.8-2.2-7.2-3.3c17.3,2.3,34.6,4.7,51.9,7
				c0.6,0,1.3,0.1,1.9,0.1c1,0.1,2,0.2,3,0.3c1.4,0.6,2.7,1.7,4.1,1.7c6.9,0.3,13.9,0.8,20.8,0.2c4.7-0.4,9.2-2.6,13.8-4
				c1.1-2,2.2-3.9,3.3-5.9c0.3-2.8,0.6-5.6,0.9-8.4c1,0.3,2,0.6,3.1,0.8c3.3,1.9,6.7,3.7,10,5.6c5.7,3.2,11.3,6.4,17,9.7
				c0.8-0.1,1.7-0.3,2.5-0.4c0,0,0.4,0,0.4,0c2,4.3,6.2,4.6,10,5.6c1.5,1,2.9,1.9,4.4,2.9c2.4,0.7,4.8,1.4,7.2,2.2
				c3.1,5.2,9,4.2,13.6,6.1c1.3,0.6,2.6,1.3,3.9,1.9c1,0.7,2,1.6,3.2,2c5.1,2,10.2,3.9,15.2,5.9c0.9,0.1,1.7,0.3,2.6,0.4
				c1.6,0.6,3.2,1.2,4.7,1.8c6.6,2.6,13.2,5.3,19.9,7.9c4.3,1.9,8.7,3.8,13,5.8c3.4,0.9,6.8,1.8,10.1,2.7c0.7,0.6,1.4,1.1,2.1,1.7
				c3.4,1.3,6.7,2.7,10.1,4c1.2,0.5,2.4,1.1,3.5,1.6c3.5,1.4,7,2.8,10.5,4.2c3,1.3,6,2.6,9,3.9c0.8,0.6,1.6,1.2,2.4,1.7
				c0.5,0.1,0.9,0.2,1.4,0.3C542.1,266.5,545.5,267.8,548.9,269.2z"/>
			<path class="st3" d="M571.8,289.2c-3.7-1-7.4-2-11-3c-1-0.6-1.9-1.4-3-1.7c-15.7-4.1-31.3-8.1-47-12.2c-1-0.3-2-0.6-3-0.9
				c-13.4-3.7-26.9-7.5-40.3-11.1c-24.3-6.6-48.7-13.3-73.1-19.8c-29.2-7.8-58.4-15.5-87.6-23.3c-23.1-6.2-46.1-12.5-69.2-18.8
				c1.8-1.8,3.5-3.5,5.3-5.3c5.2,0.6,10.5,1.3,15.7,1.9c0.1,0.3,0.2,0.6,0.3,1c2.4,1.1,4.7,2.6,7.2,3.3c8.2,2.3,16.5,4.3,24.8,6.5
				c4.4,1.1,8.7,2.5,13.1,3.5c6,1.5,12.1,2.7,18.1,4.3c7.5,1.9,14.9,4.2,22.3,6.2c16.6,4.5,33.2,9,49.8,13.5
				c11.2,3.1,22.3,6.4,33.5,9.5c14.8,4,29.7,8,44.6,11.9c11.6,3,23.3,5.7,34.9,8.9c10.8,2.9,21.4,6.3,32.1,9.4
				c3.3,0.9,6.7,1.4,10,2.3c7.5,2.2,15,4.7,22.5,6.7c2.9,0.8,6.1,0.8,9.2,1.2c3.2,1.2,6.3,2.4,9.5,3.6c2.1,0.8,2.7,1.8,0.3,3.1
				c-3.8,0.2-7.5,0.4-11.3,0.7c-1.6-0.3-3.3-0.7-4.9-1C573.7,289.3,572.8,289.2,571.8,289.2z"/>
			<path class="st4" d="M565.8,196.2c3.3-1.6,6.5-3.4,9.9-4.8c6.7-2.7,13.4-5.2,20.2-7.9c0.7-0.4,1.4-0.7,2.2-1.1
				c0,0-0.1,0.1-0.1,0.1c1.1-0.4,2.2-0.8,3.2-1.2c0,0,0.3,0.1,0.3,0.1l0.3-0.2c7.7-1.8,15.4-4.1,22.7,1.4l0.3-0.1
				c0,0-0.4,0.1-0.4,0.1c1.2,1,2.5,2.1,3.7,3.1c0,0,0.1,0.2,0.1,0.2c0.8,0.7,1.7,1.4,2.5,2.2c2.7,4.1,5.8,8.1,7.9,12.5
				c1.7,3.4,0.9,6.7-3.5,8.2c-6.3,2.2-12.5,4.7-18.7,7.2c-5.4,2.2-10.8,4.6-16.2,6.9c-2.3-1.2-4.7-2.3-7-3.6
				c-0.4-0.2-0.2-1.4-0.2-2.1c14.8-4.6,29-10.8,43.3-16.6c-0.2-0.5-0.4-0.9-0.5-1.4c-14,5.4-28,10.9-42.2,16.4
				c-0.9-2-1.6-3.4-2.5-5.3c14-5.4,27.6-10.7,41.2-16c-0.2-0.5-0.3-0.9-0.5-1.4c-4,1.4-7.9,2.9-11.9,4.3
				c-9.4,3.4-18.7,6.7-28.1,10.1c-1.3-1.1-2.7-2.2-4-3.2c4.4-2,8.9-3.9,13.3-5.9c-0.2-0.4-0.4-0.9-0.6-1.3
				c-5.3,2.2-10.5,4.3-15.8,6.5c-1.7-1-3.3-2-5-3.1c1.2-0.8,2.3-1.8,3.6-2.3c5-1.9,10-3.7,15-5.5c7.9-2.8,15.7-5.6,23.6-8.4
				c-2.1-0.7-3.8-0.5-5.5,0.1c-6.6,2.3-13.2,4.6-19.7,7c-6.3,2.3-12.6,4.8-19,7.2C573.7,197.7,569.8,196.9,565.8,196.2z
				 M626.2,189.5c-0.2-0.5-0.3-1-0.5-1.5c-7.5,2.7-14.9,5.3-22.4,8c0.2,0.5,0.4,1.1,0.6,1.6C611.3,194.9,618.8,192.2,626.2,189.5z"
				/>
			<path class="st5" d="M516.7,184.2c-0.6,0.4-1.2,0.8-1.9,1.2c-4.7-1.1-9.4-2-14-3.4c-2.6-0.8-3.2,0.1-3.2,2.3
				c-0.3,0.3-0.7,0.5-1,0.8c-0.3,0.3-0.7,0.6-1,0.9c-0.9,0.4-1.9,0.8-2.8,1.2c-0.1-1.8-0.2-3.5-0.2-5.3c0.7-1.5,3.8-3.5-0.8-3.7
				c0-0.5,0.2-1.2-0.1-1.4c-3.4-3.1-6.7-6.3-10.4-9c-0.9-0.7-3,0.3-4.6,0.5c-0.7,0.3-1.3,0.7-2,1c-1.2-1.5-2.4-2.9-4-5
				c1.3-0.5,2.4-1.1,3.5-1.4c1.1-0.4,2.8-0.2,3.4-0.9c3.6-4.3,8.1-5.1,13.3-3.8c0.3,1.4,0.9,2.8,0.9,4.3c0,4.2,2.3,6.5,6,7.7
				c4.4,1.9,8.5,1.8,11.9-2.1c1-2.1,2.7-4.2,2.9-6.4c0.6-6.3-2.9-9.9-8.8-11.5c0.8-0.5,1.5-1.3,2.3-1.3c3.8-0.3,5.2-2.1,4.5-5.1
				c-2.3-0.7-4.2-1.2-6-1.7c8.7-3.3,17.8-4.5,27.1-3.7c0,0.6,0.1,1.2,0.1,1.8c-1.3,7-2.7,14-4,21c-0.1,0.1-0.1,0.3-0.2,0.4
				c0.1-0.1,0.1-0.3,0.2-0.4c5.2-6.8,10.4-13.6,15.5-20.5c0.6-0.8,0.5-2.2,0.7-3.3c0,0-0.1,0.1-0.1,0.1c0.6-0.1,1.2-0.2,1.9-0.2
				c0.2,1.4,0.9,3,0.5,4.3c-0.5,1.6-1.8,3-2.7,4.5c-1,1.4-2,2.7-2.9,4.1c-3.7,5.7-7.3,11.4-11,17.1
				C525.4,172.8,521,178.5,516.7,184.2z"/>
			<path class="st2" d="M400.5,152.3c2.7,1.2,5.2,2.5,8,3.4c6.9,2.3,13.9,4.5,20.9,6.7c4.4,1.6,8.9,3.1,13.3,4.7
				c3.3,1.3,6.6,2.6,9.9,3.9c-1.7,2.6-3.3,5.3-5,7.9c-0.7,0.2-1.3,0.3-2,0.5c-1,0.6-1.9,1.3-2.9,1.9c-0.3-0.1-0.5-0.1-0.8-0.1
				c-15.5-5.3-30.9-10.6-46.4-15.9c-2-0.7-4-1.4-5.9-2.1l0,0c-6.7-4-13.4-7.8-19.9-12.1c-5.7-3.8-13.9-2.3-18.2-8.8
				c1.4-1.1,2.7-2.2,4.1-3.2c2.1,0.4,4.2,0.7,6.2,1.1c1.2,0.3,2.5,0.6,3.7,0.8c2.3,0.7,4.6,1.4,7,2.1c0.3,0.1,0.6,0.2,0.9,0.2
				c2.4,0.9,4.7,1.8,7.1,2.7c0.7,0.3,1.4,0.7,2.1,1c1,0.4,2.1,0.8,3.1,1.2c2,0.6,3.9,1.3,5.9,1.9c2.6,0.6,5.1,1.2,7.7,1.8
				C399.8,152,400.2,152.2,400.5,152.3z"/>
			<path class="st6" d="M322.9,153.1c-6.9-10-13.8-19.9-20.6-29.9c-0.7-1.1-1.3-2.3-1.9-3.4c0.8,0.1,1.6,0.3,2.4,0.4
				c3.9,0.7,24.1,6.5,27.9,9.2c1.8,1.2,3.7,2.3,5.5,3.5c-2.6,0.2-5.2,0.5-8.8,0.8c6,6.9,11.4,13,16.7,19.1c0-0.1,0.1-0.1,0.1-0.2
				c1.3,1.8,2.7,3.6,4.2,5.6c-0.4,0.9-0.9,2.2-1.6,4.2c2.3,0.5,4.3,1,7.6,1.8c-1.8,0.7-2.9,1.1-3.9,1.5c0.2,0.5,0.4,0.9,0.6,1.4
				c2.9,1.1,5.8,2.1,8.7,3.2c1.3,0.7,2.7,1.4,4,2c-0.7,0.3-1.3,0.6-2,0.9c-0.4,0-0.7,0.1-1.1,0.1c-0.5-0.4-0.9-1-1.5-1.2
				c-11.8-3.3-23.6-6.5-35.4-9.8c-3.3-3.3-6.5-6.5-9.9-9.9c0.8-0.2,1.3-0.4,1.7-0.4c1,0.1,2,0.3,2.9,0.5c1.3,0.5,2.5,1,3.8,1.4
				c0.4,0.1,0.8,0.1,1.2,0.2C323.3,153.7,323.1,153.4,322.9,153.1z"/>
			<path class="st3" d="M595.9,242.2c-7.6-1.4-15.2-2.8-22.8-4.2c-2.4-0.3-4.9-0.6-7.3-0.9c-2.3-0.7-4.7-1.4-7-2
				c-0.3,0-0.7-0.1-1-0.2c-3.7-1.8-7.4-3.6-11.1-5.3c-1-0.1-1.9-0.2-2.9-0.3c-4.7-1.3-9.3-2.6-14-3.8c-3.3-0.8-6.5-1.6-9.8-2.4
				c-5.4-1.9-10.8-3.8-16.3-5.7c-3-1-6-2-9-3c1.3-1.7,2.6-3.4,4-5.1c0.8-1.3,1.6-2.7,2.4-4c4.2,1.2,8.3,2.4,12.5,3.6
				c1.6,0.5,3.1,1.1,4.7,1.6c9.4,3,18.9,5.9,28.3,8.9c4.4,1.7,8.8,3.5,13.3,5c11.9,3.9,23.8,7.7,35.8,11.5
				C595.8,237.9,595.8,240.1,595.9,242.2z"/>
			<path class="st7" d="M595.9,242.2c0-2.2-0.1-4.4-0.1-6.5c-0.6-1.5-1.3-3-1.9-4.6c-0.8-2.3-1.5-4.6-2.3-6.8
				c-0.3-2.3-0.6-4.5-0.9-6.8c0.8-0.1,1.5-0.2,2.3-0.3c0.1,0.7-0.1,1.9,0.2,2.1c2.3,1.3,4.7,2.4,7,3.6c7.7,5.5,15.7,10.7,18.5,20.6
				c2.3,8.4,1.1,16.3-2.6,25.4c-1.9-2.4-3.4-4-4.6-5.8c-3.4-5.3-6.5-10.8-10-16C600,245.3,597.7,243.9,595.9,242.2z"/>
			<path class="st2" d="M590.6,217.5c0.3,2.3,0.6,4.5,0.9,6.8c-5.3-1.1-9.2-4.9-15.4-5c-6.5-0.1-13-3.9-19.6-5.9
				c-3.7-1.2-7.5-2.2-11.3-3.2c-8.7-2.2-17.5-4.5-26.3-6.5c-4.7-1.1-9.4-1.7-14.1-2.5l-0.3-0.1c-0.2-0.7-0.4-1.3-0.6-2
				c1.1-0.8,2.5-1.3,3.4-2.3c1.8-1.8,3.4-3.9,5.1-5.9c4.7,1.5,9.5,3,14.2,4.4c3.7,1.3,7.3,2.6,11,3.9c0.7,0.2,1.4,0.5,2,0.7
				c0.6,0.2,1.3,0.4,1.9,0.5c2,0.9,4.1,1.7,6.1,2.6c1,0,1.9,0.1,2.9,0.1c7.7,2.7,15.4,5.4,23.1,8.1c1.1,0.6,2.3,1.2,3.4,1.8
				c3.9,1.3,7.8,2.7,11.7,4C589.5,217.3,590.1,217.4,590.6,217.5z"/>
			<path class="st8" d="M476.7,168.2c1.6-0.2,3.7-1.2,4.6-0.5c3.7,2.7,7,5.9,10.4,9c0.2,0.2,0.1,0.9,0.1,1.4
				c-3.9,4-7.7,8.1-11.6,12.1c-3.5-1.3-6.9-2.6-10.4-3.9c2.3-2.9,6.7-2.8,9.1,0.2c2.8-5.2-1.4-5.2-3.5-5.5
				c-1.7-4.1-3.1-7.4-4.2-10.1c-2.2-1.3-4-2.3-6.1-3.6c-0.4,0.3-1.4,0.9-2.8,1.9c-0.3-1.4-0.5-2.4-0.7-3.3c6.1-4.4,11.8-9.4,18.3-13
				c7.9-4.3,16.5-7.3,24.8-10.8c1.8,0.5,3.6,1,6,1.7c0.7,2.9-0.7,4.8-4.5,5.1c-0.8,0.1-1.6,0.9-2.3,1.3c-5.9,0.1-10.7,1.9-12.9,8
				c-5.2-1.4-9.7-0.6-13.3,3.8c-0.6,0.7-2.2,0.5-3.4,0.9c-1.1,0.4-2.2,0.9-3.5,1.4c1.7,2.1,2.9,3.5,4,5c-1.2,4.9,1.8,5.7,4.4,5.7
				c1.6,2.1,2.6,3.6,3.7,5c0.5-0.3,0.9-0.7,1.4-1C481.8,175.4,479.2,171.8,476.7,168.2z"/>
			<path class="st4" d="M399.5,151.8c-2.6-0.6-5.1-1.2-7.7-1.7c0-10.9,0-21.8,0-32.7c0-7.1,0-14.1-0.1-21.2c1-1,2-2,3-3
				c0.3,0,0.7,0,1,0c0,0,0,0,0,0c0.7,0.1,1.4,0.2,2,0.3c0.7,0.2,1.3,0.5,2,0.7c0,0.8,0.1,1.5,0.2,3c0.9-1,1.4-1.5,1.9-2
				c0,0,0.5,0,0.5,0l0.5,0.1c1.1,2.4,2.9,4.8,3.2,7.3c0.5,4.5,0,9.1-0.1,13.6c-0.1,1-0.1,2-0.2,3c-0.9,6-1.7,12-2.6,18
				c-0.1,0.3-0.2,0.6-0.2,1c-0.3-1.7-1-3.4-1-5.1c-0.1-8.5,0-17-0.1-25.4c0-1.8-0.5-3.6-0.8-5.5c-0.5,0-0.9,0.1-1.4,0.1
				C399.5,118.8,399.5,135.3,399.5,151.8z"/>
			<path class="st4" d="M352.8,108.2c0.7,1,1.3,2,2,3c-0.3,8-0.7,16.1-1,24.1c-0.7,0.3-1.6,0.3-2.2,0.8c-1.8,1.4-4.1,2.5-5.2,4.4
				c-1,1.6-0.5,4.1-0.7,5.9c-3.2-2.8-5.9-5.2-9.1-8.1c0.6-1.4,1.8-3.8,3-6.3c-0.3-0.5-0.7-1.1-1-1.6c0.4-1,1.1-2,1.2-3
				c0.4-7.3,0.7-14.7,1.1-22c2,0.5,4,1,6,1.6c0,9.2,0,18.4,0,27.7c0.2,0,0.4,0,0.6,0c0.4-8.5,0.9-17,1.3-25.4
				C350.3,108.7,351.6,108.4,352.8,108.2z"/>
			<path class="st9" d="M565.8,237.1c2.4,0.3,4.9,0.6,7.3,0.9c-1,9.3-5.5,16.5-13,22.1c-3.9,2.9-7.4,6.1-11.2,9.1
				c-3.4-1.4-6.8-2.7-10.2-4.1c6.1-6.3,12.2-12.6,18.4-19c0.6-0.4,1.2-0.7,1.8-1.1c0.3-1.3,0.6-2.6,0.9-3.9l0.1-0.1
				C564.1,243.1,565.2,240.5,565.8,237.1z"/>
			<path class="st10" d="M461.6,165.9c0.2,0.9,0.4,1.9,0.7,3.3c1.4-0.9,2.4-1.6,2.8-1.9c2.1,1.2,4,2.3,6.1,3.6
				c1.1,2.7,2.5,6,4.2,10.1c2.1,0.3,6.3,0.3,3.5,5.5c-2.5-3-6.8-3-9.1-0.2c-7.3-2.5-14.7-5-22-7.5c1.7-2.6,3.3-5.3,5-7.9
				C455.7,169.3,458.6,167.6,461.6,165.9z"/>
			<path class="st10" d="M573.8,211.4c-7.7-2.7-15.4-5.4-23.1-8.1c5-2.3,10.1-4.7,15.1-7c4,0.7,8,1.5,12,2.2c0.7,0.6,1.3,1.2,2,1.8
				c1.7,1,3.3,2,5,3.1c0.3,0.3,0.5,0.6,0.8,0.9C581.6,206.6,577.7,209,573.8,211.4z"/>
			<path class="st4" d="M385.9,148.2c-1-0.4-2.1-0.8-3.1-1.2c0.3-12.9,0.6-25.9,0.9-38.8c0-0.6,0.1-1.1,0.1-1.7
				c2.1-2.4,4.1-4.8,6.2-7.2c0.2,1.6,0.7,3.2,0.6,4.8c-0.2,6.5-0.7,12.9-0.8,19.3c-0.2,6.8-0.1,13.6-0.1,20.4
				C389.8,146.6,389.1,148.5,385.9,148.2z"/>
			<path class="st4" d="M327,114.1c-2.5-6.7,2.6-11.4,11.6-10.5c-0.3,8.7-0.7,17.4-1,26.1c-1.7-2-3.5-3.9-5.2-5.9l-0.1-0.2
				c-0.8-1.2-1.6-2.3-2.4-3.5c0,0,0,0,0,0c-0.7-1.3-1.4-2.7-2.1-4C327.5,115.4,327.3,114.8,327,114.1z"/>
			<path class="st11" d="M593.8,319.2c1.9,4.5,4.4,8.8,5.4,13.5c0.5,2.1-1.4,5.4-3.2,7c-1.2,1.1-5,1.4-6.2,0.4
				c-1.9-1.7-4-5.1-3.5-7.3c0.9-4.7,3.4-9.1,5.2-13.6C592.2,319.2,593,319.2,593.8,319.2z"/>
			<path class="st4" d="M380.7,146c-2.4-0.9-4.7-1.8-7.1-2.7c0.4-2.6,0.8-5.2,1.1-7.9c0.4-3.8,0.6-7.6,0.9-11.4
				c1-2.6,2.1-5.3,3.1-7.9c0.4-0.7,0.9-1.3,1.3-2c0.5,0.9,1.5,1.9,1.5,2.8C381.4,126.7,381,136.4,380.7,146z"/>
			<path class="st12" d="M512.5,191c-1.7,2-3.3,4-5.1,5.9c-0.9,1-2.3,1.5-3.4,2.3c-1.1-1.3-2.2-2.6-3.3-3.9c0.3-2.5,0.6-5.1,0.9-7.6
				c-0.4-0.3-0.9-0.6-1.3-1c-1.5,1.2-3,2.3-4.5,3.5c0-1.4-0.1-2.8-0.1-4.3c0.3-0.3,0.7-0.6,1-0.9c0.8,0.3,1.6,0.5,2.4,0.8
				c0.1-0.5,0.3-1.1,0.4-1.6c-0.6,0-1.2,0-1.7,0.1c0-2.2,0.6-3.1,3.2-2.3c4.6,1.4,9.3,2.3,14,3.4C514.1,187.2,513.3,189.1,512.5,191
				z"/>
			<path class="st1" d="M527.8,161.2c1.3-7,2.7-14,4-21c0.4,1.6,1.2,3.3,1.2,4.9c0,1.7-0.8,3.5-1.3,5.2c0.3,0,0.6,0,0.9,0
				c1.7-2.4,3.4-4.7,5.1-7.1c0.7-0.9,1.3-2,2.1-2.7c1.3-1.1,2.7-2.1,4-3.1c-0.2,1.1-0.1,2.5-0.7,3.3
				C538.2,147.6,532.9,154.4,527.8,161.2L527.8,161.2z"/>
			<path class="st13" d="M571.8,289.2c1,0.1,2,0.1,3,0.2c1.3,1,2.7,1.9,4,2.9c0.3,1,0.7,2,1,3c0.2,2,0.5,3.9,0.7,5.9
				c-2.6,2.7-5.2,5.4-7.7,8.1c-0.1-3.8-1.4-7.4,0.9-11.5C574.7,295.8,572.5,292.1,571.8,289.2z"/>
			<path class="st9" d="M399.5,151.8c0-16.5,0-33,0-49.6c0.5,0,0.9-0.1,1.4-0.1c0.3,1.8,0.8,3.6,0.8,5.5c0.1,8.5,0,17,0.1,25.4
				c0,1.7,0.6,3.4,1,5.1c-0.7,4.7-1.4,9.4-2.2,14.1C400.2,152.2,399.8,152,399.5,151.8z"/>
			<path class="st9" d="M385.9,148.2c3.3,0.3,3.9-1.6,3.9-4.3c-0.1-6.8-0.1-13.6,0.1-20.4c0.2-6.5,0.6-12.9,0.8-19.3
				c0-1.6-0.4-3.2-0.6-4.8c0.4-0.9,0.8-1.9,1.2-2.8c0.2-0.1,0.4-0.2,0.5-0.3c0,7.1,0.1,14.1,0.1,21.2c0,10.9,0,21.8,0,32.7
				C389.8,149.4,387.8,148.8,385.9,148.2z"/>
			<path class="st9" d="M380.7,146c0.3-9.7,0.7-19.3,0.9-29c0-0.9-1-1.8-1.5-2.8c-0.7-3.2,0.1-5.4,3.6-6.1
				c-0.3,12.9-0.6,25.9-0.9,38.8C382.1,146.7,381.4,146.4,380.7,146z"/>
			<path class="st11" d="M609.6,353.8c0.7,2.4,2,4.8,2,7.3c0,1.3-2,2.7-3,4c-1.2-1.7-3.3-3.3-3.3-5c0-2.1,1.7-4.2,2.7-6.2
				C608.5,353.9,609,353.8,609.6,353.8z"/>
			<path class="st9" d="M353.8,135.3c0.3-8,0.7-16.1,1-24.1c0.6,0.4,1.3,0.8,1.9,1.2c0,0.3,0.1,0.6,0.1,0.9c0.3,0.4,0.5,0.8,0.8,1.2
				c-0.1,0.3-0.1,0.5,0,0.8c-0.3,1.3-0.5,2.7-0.8,4c0,5.6-0.1,11.3-0.1,16.9c-0.3,0.7-0.7,1.3-1,2
				C355.1,137.2,354.4,136.3,353.8,135.3z"/>
			<path class="st9" d="M352.8,108.2c-1.2,0.3-2.5,0.5-4.2,0.9c-0.4,8.4-0.8,16.9-1.3,25.4c-0.2,0-0.4,0-0.6,0c0-9.2,0-18.4,0-27.7
				C348.8,107.2,350.8,107.7,352.8,108.2z"/>
			<path class="st14" d="M579.8,295.2c-0.3-1-0.7-2-1-3c0.3-0.6,0.6-1.2,0.9-1.8c3.8-0.2,7.5-0.4,11.3-0.7c-1.4,1.7-2.8,3.4-4.2,5.2
				c-1.7,0.1-3.3,0.2-5,0.3c-0.3,0-0.7,0-1,0C580.4,295.2,580.1,295.2,579.8,295.2z"/>
			<path class="st9" d="M337.7,129.7c0.3-8.7,0.7-17.4,1-26.1c0.7,0.5,1.4,1.1,2.1,1.6c-0.3,7.3-0.6,14.7-1.1,22c-0.1,1-0.8,2-1.2,3
				C338.2,130.1,337.9,129.9,337.7,129.7z"/>
			<path class="st15" d="M479.8,406.3c1.4-5.3,5.5-7.9,10.1-10C486.5,399.7,483.1,403,479.8,406.3z"/>
			<path class="st16" d="M579.8,295.2c0.3,0,0.7,0,1,0c0.3,0,0.7,0,1,0c1.7-0.1,3.3-0.2,5-0.3c-2.1,2.1-4.1,4.1-6.2,6.2
				C580.2,299.1,580,297.2,579.8,295.2z"/>
			<path class="st17" d="M356.8,113.2c0-0.3-0.1-0.6-0.1-0.9c1.6,0.4,3.3,0.8,4.9,1.2c1,1,2,1.9,3,2.9c-0.2,0.3-0.4,0.6-0.6,0.9
				c-2.1-0.7-4.3-1.4-6.4-2.1c-0.1-0.3-0.1-0.5,0-0.8C357.3,114,357.1,113.6,356.8,113.2z"/>
			<path class="st1" d="M628.1,185.8c-1.2-1-2.5-2.1-3.7-3.1C625.6,183.7,626.8,184.7,628.1,185.8z"/>
			<path class="st1" d="M630.7,188.1c-0.8-0.7-1.7-1.4-2.5-2.2C629.1,186.7,629.9,187.4,630.7,188.1z"/>
			<path class="st9" d="M401.5,94.3c0.1,0.3,0.2,0.6,0.2,0.9c-0.5,0.5-0.9,1-1.9,2c-0.1-1.5-0.1-2.2-0.2-3
				C400.3,94.3,400.9,94.3,401.5,94.3z"/>
			<path class="st9" d="M397.8,93.5c-0.7-0.1-1.4-0.2-2-0.3C396.4,93.3,397.1,93.4,397.8,93.5z"/>
			<path class="st1" d="M598,182.5c-0.7,0.4-1.4,0.7-2.2,1.1C596.6,183.2,597.3,182.8,598,182.5z"/>
			<path class="st9" d="M395.7,93.2c-0.3,0-0.7,0-1,0c0.2-0.2,0.5-0.5,0.7-0.7C395.5,92.8,395.6,93,395.7,93.2z"/>
			<path class="st18" d="M283.7,356.3c1,1.4,2,2.7,3,4.1C285.7,359,284.7,357.6,283.7,356.3z"/>
			<path class="st15" d="M318.7,307.3c2,0,4,0.1,2.1,2.9C320.1,309.2,319.4,308.3,318.7,307.3z"/>
			<path class="st15" d="M317.7,306.3c0.3,0.3,0.7,0.7,1,1C318.4,306.9,318,306.6,317.7,306.3z"/>
			<path class="st16" d="M347.8,267.2c1.5-1,3.9-1.6,4.4-3c0.9-2.4,0.7-5.2,1-8.6c3.5-0.8,2.5-3.7,0.6-6.7c1.9-1.2,6.2,1.6,4.9-2.2
				c4.9,1.1,9.9,2.3,15.3,3.5c0.2,1,0.5,2.6,0.9,4.9c5.4-5.1,10.1-1.8,14.9,0c-7,1.8-10.3,7.9-16.1,12.8c2.3,0.5,3.5,0.7,4.8,1
				c-0.1,1.9-0.3,3.8-0.4,6c-5-2.7-7-6.8-6.5-12.1c-1.8,1-3.2,1.9-5,2.9c-0.4,5.6-7.8,3.3-9.9,7.7c1.4,0.1,3.1,0.2,6,0.3
				c-2.7,2.1-4.5,3.5-6.8,5.2c-1.4-3.1-2.8-6-4.1-9c1.8,0,3.7,0,5.5,0c0.1-0.6,0.1-1.3,0.2-1.9c-2.6-0.4-5.1-0.7-7.7-1.1
				C349.1,267.2,348.4,267.2,347.8,267.2z"/>
			<path class="st16" d="M396.7,255.2c5-1.7,5.2-1.6,6.2,2.3c2.5,0.9,4.6,1.6,7.7,2.7c-2.1,1.6-3,2.3-3.9,3.1
				c-1.3,1.1-2.5,2.5-4.1,3.2c-1.1,0.5-2.7,0-4-0.1c0.2-1,0.1-2.4,0.8-3.1c2.1-2.3,2.1-3.8-0.9-5.3
				C397.7,257.5,397.3,256.1,396.7,255.2z"/>
			<path class="st16" d="M411.8,271.2c2.9-1,5.1-0.2,6.1,2.9c0.8,2.7,1.3,5.4,1.9,8.1C417.1,278.6,414.4,274.9,411.8,271.2z"/>
			<path class="st14" d="M349.7,267.2c2.6,0.4,5.1,0.7,7.7,1.1c-0.1,0.6-0.1,1.3-0.2,1.9c-1.8,0-3.7,0-5.5,0c-0.3,0-0.7,0-1,0
				C350.4,269.2,350.1,268.2,349.7,267.2z"/>
			<path class="st16" d="M351,281.9c2.4,0,4.2,0,6.1,0C354.4,286.2,354.1,286.2,351,281.9z"/>
			<path class="st16" d="M391.7,255.2c1-0.3,2-0.7,3-1c-0.4,1.2-0.8,2.5-1.3,3.7C392.9,257,392.3,256.1,391.7,255.2z"/>
			<path class="st15" d="M420.8,393.3c-1-0.7-2-1.4-3.1-2.1C418.7,391.9,419.8,392.6,420.8,393.3z"/>
			<path class="st15" d="M436.8,356.2c-0.1,0.1-0.1,0.2-0.2,0.3C436.6,356.5,436.7,356.3,436.8,356.2
				C436.7,356.2,436.8,356.2,436.8,356.2z"/>
			<path class="st19" d="M455.7,419.5c1,0,2-0.1,3-0.1C457.7,419.4,456.7,419.4,455.7,419.5z"/>
			<g>
				<path class="st20" d="M487,319.1c-0.1-0.2-0.2-0.4-0.3-0.6c-0.1,0.2-0.2,0.5-0.4,0.7C486.3,319.2,486.6,319.2,487,319.1z"/>
				<polygon class="st20" points="489.9,396.3 489.9,396.3 489.9,396.3 				"/>
			</g>
			<path class="st20" d="M318.5,152.5c-1-0.2-1.9-0.4-2.9-0.5c-0.5,0-1,0.2-1.7,0.4c3.4,3.4,6.6,6.7,9.9,9.9
				c0.2,0.6,0.5,1.2,0.7,1.8c-0.7,1.6-1.4,3.3-2,4.9c-2.1,6.5-5.9,11.7-12.2,14.3c-13.7,5.6-27.2,4.9-40.1-2.7
				c-0.7-0.4-1.3-0.8-2-1.2l0,0.2c-0.2-0.1-0.3-0.2-0.5-0.3c0-5.8,0.5-11.7,0-17.5c-1.1-12.8,10.9-19.5,21.3-17.1
				c5.9,1.3,12,1.3,17.9,2.7C310.9,148.4,314.6,150.7,318.5,152.5z M299.9,172.4c1-1.4,1.9-2.8,2.9-4.2c-0.5-0.2-1-0.5-1.5-0.7
				c-0.6,1.6-1.2,3.1-1.8,4.7c-0.2,0.4-0.5,0.8-0.7,1.2c0,0,0.2,0.2,0.3,0.3C299.5,173.2,299.7,172.8,299.9,172.4z M296.6,175.1
				c-6.9,4.1-14.1,5.1-21.5,1c6.8,6.3,16.6,5.7,21.9-0.6c0.1-0.2,0.2-0.4,0.3-0.7C297.1,174.9,296.8,175,296.6,175.1z M285.3,150.1
				c-6.5,0-11.6,5.3-11.5,11.8c0.1,6.3,5.2,11.3,11.5,11.4c6.6,0.1,11.6-4.9,11.7-11.6C296.9,155,292,150,285.3,150.1z"/>
			<path class="st21" d="M431.7,437.2c-0.4-0.1-0.8-0.3-1.2-0.4C430.9,437,431.3,437.1,431.7,437.2c0-0.4,0-0.7,0-1.1
				c-1.3-2.4-2.6-4.7-4-7.1c-0.7-0.3-1.3-0.6-2-1l0,0c-1.7-3-3.5-6-5.2-9c-1.3-2.6-2.6-5.3-3.8-7.9c-11-11.3-22-22.5-33-33.9
				c-8.9-9.2-17.6-18.5-26.3-27.8c-12.3-13.1-38.8-42.2-38.8-42.2c-0.3-0.3-29.9-30.7-34.4-36c-2.3-2.7-27.6-31.3-28.7-33
				c-1-1.4-2-2.7-3-4.1c-4.2-5.8-8.4-11.6-12.5-17.4c-1.5-2.1-2.9-4.3-4.4-6.5c-1.8-0.2-3.5-0.4-4.8-0.5c-0.8,2-2.2,3.9-2,5.5
				c0.5,3-1.5,4.9-3.2,4.5c-2.3-0.6-4.3-2.8-5.9-4.8c-1.1-1.3-1.3-3.3-1.8-5.1c-0.2,6.9-0.6,7.3-5.1,6.2c-2,0.2-0.1,5.8-4.1,2.2
				c-0.9-4.5-3.1-2.1-5-1c0,0,0,0,0,0c2.1-9.1-4.6-13.8-9.5-18.8c0.6-2.4-1.2-6.1-2.3-5.9c1.2-6.6-0.4-8.8-6.2-9.3c-1-0.1-2,0-3,0
				c-1,0-3.8-4.1-6.8-4.2c-1.5-0.1-4.9-0.8-5.2,0.2c0,0.7,0,1.3,0,2c0.3,0.7,0.6,1.3,1,2c0.3,0.7,0.7,1.3,1,2c0,0,0,0,0,0
				c0.7,2.3,0.8,4.9,2,7c1.2,2,7.9,13.8,10.4,17.7c15.4,23.8,31.2,47.3,46.8,71c0.4,0.7,11.1,16.2,12,17.4
				c6.3,8.6,12.6,17.2,18.9,25.9c6.5,9.3,13,18.6,19.5,28c0.8,1.1,1,2.7,1.5,4c0,0,0,0,0,0c1,1.4,2,2.7,3,4.1
				c1.6,2.2,3.5,4.3,4.9,6.7c8.1,13.7,16.1,27.5,24.2,41.2c0.6,1.9,1.2,3.8,1.8,5.6c1.4,2.4,2.8,4.8,4.2,7.3c0.7,1.7,1.4,3.4,2,5.1
				c0.7,0.3,1.3,0.6,2,0.9h0c0.7,2,1.4,4,2,6.1c1,1.9,1.9,3.9,2.9,5.8c0.7,2.4,1.4,4.7,2,7.1c34.7,0,69.3,0,104,0
				C435.1,443.2,433.4,440.2,431.7,437.2z"/>
			<path class="st7" d="M302.3,123.2c-0.7-1.1-1.3-2.3-1.9-3.4c-1.2-0.3-2.4-0.6-3.6-1c-2.7-1.2-5.4-2.3-8.1-3.5
				c-4.3-1.3-8.6-2.6-13-3.9c-5.3-1.4-10.6-3.2-16-4.2c-7.9-1.3-16-2-24-1.8c-5.5,0.2-14.8,2.6-20.4,5.1c-3.3,1.5-3.1,1.6-6.4,3.7
				c-2,1.3-12.4,9-15.1,11.9c-4.1,4.4-18.6,21.1-19.9,22.1c-2,8.7-4.2,17.4-5.8,26.2c-0.3,1.4,1.8,3.2,2.8,4.8
				c0.3-1,3.8-0.2,5.2-0.2c3,0.1,5.8,4.2,6.8,4.2c1,0,2-0.1,3,0c5.8,0.4,7.4,2.7,6.2,9.3c1.1-0.2,2.9,3.5,2.3,5.9
				c4.9,5.1,11.6,9.7,9.5,18.8l0,0c2-1.2,4.2-3.6,5,1c4,3.6,2.1-2,4.1-2.2c4.5,1.1,4.9,0.7,5.1-6.2c0.6,1.7,0.8,3.8,1.8,5.1
				c1.6,2,3.7,4.2,5.9,4.8c1.7,0.4,3.7-1.4,3.2-4.5c-0.3-1.6,1.2-3.4,2-5.5c1.3,0.1,3,0.3,4.8,0.5c0.7-4,1.3-8,2-12
				c1.8-1.8,3.5-3.5,5.3-5.3c5.2,0.6,10.5,1.3,15.7,1.9c6.5-3,8.2-9.1,9.5-15.3c-0.2-0.1-0.3-0.2-0.5-0.3c0-5.8,0.5-11.7,0-17.5
				c-1.1-12.8,10.9-19.5,21.3-17.1c5.9,1.3,12,1.3,17.9,2.7c4.1,1,7.8,3.3,11.7,5.1c1.3,0.5,2.5,1,3.8,1.4c0.2-0.3,0.4-0.6,0.6-0.8
				C316,143.1,309.1,133.2,302.3,123.2z M242.9,193C242.9,193,242.9,193,242.9,193C244.1,192.7,244.1,192.7,242.9,193z"/>
			<path class="st6" d="M258.6,194.9c6.5-3,8.2-9.1,9.5-15.3c0,0,0-0.2,0-0.2c0.7,0.4,1.3,0.8,2,1.2c12.9,7.6,26.4,8.3,40.1,2.7
				c6.3-2.6,10.2-7.8,12.2-14.3c0.5-1.7,1.3-3.3,2-4.9c8.8,6.1,17.5,12.2,26.3,18.2c-0.9,0.3-1.9,1-2.8,1c-2.1-0.1-4.1-0.7-6.2-1
				c-0.7,0-1.3,0-2,0c-1.3,0.3-2.7,0.7-4,1c-0.3,0-0.7,0-1,0c-2.8-0.7-5.5-1.8-8.3-1.8c-1.5,0-4.5,2.1-4.4,2.6
				c0.6,2.2,1.9,4.2,3.4,6c0.6,0.7,2.3,0.4,4.1,0.7c-3.5,3.3-4,6,1,8.4c-6.8-1.6-13-2.7-18.1,1.3c1.1,0.9,2.2,1.8,3.3,2.8
				c-1-0.1-2-0.2-3-0.3c-0.6,0-1.3-0.1-1.9-0.1c-17.3-2.3-34.6-4.7-51.9-7C258.8,195.5,258.7,195.2,258.6,194.9z"/>
			<path class="st22" d="M498.7,209.1c-1.3,1.7-2.6,3.4-4,5.1c-3.1,4.6-6.3,9.2-9.3,13.9c-0.8,1.3-1.1,2.9-1.7,4.4
				c-0.3,0.3-0.7,0.6-1,0.9c-0.4,0.3-0.7,0.5-1.1,0.8c-1.7,1.6-3.5,3.3-5.2,4.9c-6.6-2.6-13.2-5.3-19.9-7.9c4,0.3,3.4-3.1,4.2-5.4
				c5.6,2.2,11.1,4.4,16.7,6.6c0.7,0.3,1.4,0.6,2.1,0.9c0.2,0.2,0.4,0.3,0.7,0.5c-0.1-0.3-0.1-0.7-0.2-1c-0.7-0.3-1.4-0.6-2.1-0.9
				c-4.8-2.5-9.6-5.1-14.3-7.6c4.8-8.2,24.2-25.1,26.9-24.7c1.3,2.3,1.9,4.1,3.1,5.3C495.1,206.6,497,207.8,498.7,209.1z"/>
			<path class="st4" d="M363.8,172.2c-1.3-0.7-2.7-1.4-4-2c0.4-1.6,0.8-3.2,1-4c3.3-1.1,6.2-2,9.1-3c9.3,4.1,18.7,8.2,28,12.3
				c1.1,1.8,2.2,3.6,3.3,5.5c1-0.7,1.9-1.3,2.9-2c9.5,4,19.1,7.9,28.6,11.9c-1.3,0.8-2.6,1.6-3.9,2.4c-6-2-12-4-17.9-6
				c-0.4,0-0.7,0-1.1,0c0,0-0.1-0.1-0.1-0.1c-7.7-2.2-15.5-4.5-24.1-6.9c1.2,3.9,2.1,6.9,3.1,10c0.3,1.3,0.7,2.5,1,3.8
				c0.4,1.4,0.8,2.8,1.2,4.2c0.2,1.4,0.4,2.8,0.6,4.1c-0.8,0.1-1.7,0.3-2.5,0.4c-1-3.6-2-7.2-3.1-10.7c-0.2-0.3-0.5-0.7-0.7-1
				c-0.3-1.9-0.5-3.9-0.9-5.8c-0.7-3.5-1.1-7.4-6.2-7.3c-2.1-0.9-4.1-1.8-6.2-2.7c-0.3-2-0.6-4-0.9-6.2
				C368.2,170.3,366,171.3,363.8,172.2z"/>
			<path class="st9" d="M482.8,233.4c0.3-0.3,0.7-0.6,1-0.9c6.7-5.1,13.3-10.2,20-15.3c5.4,1.9,10.8,3.8,16.3,5.7
				c-2.1,1.4-4.2,2.9-6.3,4.3c-1,0.6-2,1.3-3,1.9c-4,3-7.9,5.9-11.9,8.9c-0.4,0.1-0.9,0.1-1.3,0.2c-2.7,2.2-5.4,4.4-8.1,6.6
				c-4.3-1.9-8.7-3.8-13-5.8c1.7-1.6,3.5-3.3,5.2-4.9C482,234,482.4,233.7,482.8,233.4z"/>
			<path class="st17" d="M315.7,203.3c-1.1-0.9-2.2-1.9-3.3-2.8c5-4.1,11.2-2.9,18.1-1.3c-5-2.5-4.5-5.1-1-8.4
				c-1.8-0.3-3.5,0-4.1-0.7c-1.5-1.8-2.8-3.8-3.4-6c-0.1-0.5,2.9-2.6,4.4-2.6c2.8,0,5.5,1.1,8.3,1.8c1.2,2.2,2.4,4.4,3.6,6.6
				c0.4-0.2,0.7-0.3,1.1-0.5c-0.2,1.6-0.4,3.2-0.6,4.8c0.4-0.2,0.9-0.4,1.3-0.7c1.8,2.9,3.6,5.7,5.5,8.7c2.1-0.2,5.5-0.6,8.8-1
				c-4.6,1.4-9.1,3.6-13.8,4c-6.9,0.6-13.9,0.1-20.8-0.2C318.5,205,317.1,203.9,315.7,203.3z M340.5,201.7c-0.1,0.2-0.2,0.5-0.3,0.7
				c0.2,0.1,0.6,0.4,0.7,0.3c0.2-0.1,0.2-0.5,0.3-0.7C341,201.9,340.8,201.8,340.5,201.7z"/>
			<path class="st10" d="M427,219.3c-4.6-1.8-10.5-0.9-13.6-6.1c0.8-1.3,1.6-2.7,2.4-4c0.6-0.4,1.2-0.8,1.8-1.1
				c1.6,1.5,3.3,2.9,4.9,4.4c0.3,0.4,0.5,0.8,0.8,1.2c-0.1-0.5-0.2-1-0.3-1.6c-0.3-1.1-0.6-2.3-1-4.1c5.7,2.6,10.4,4.9,15.3,6.9
				c5.5,2.3,11,4.3,16.6,6.4l0,0c0,0.4,0.1,0.7,0.1,1.1c-1.5,2.2-3,4.5-4.6,6.7c-5.1-2-10.2-3.9-15.2-5.9c-1.1-0.5-2.1-1.3-3.2-2
				c-1.6-2-3.2-4-4.8-6c-0.4,0.3-0.7,0.6-1.1,0.9C425.6,217.2,426.3,218.2,427,219.3z"/>
			<path class="st10" d="M498.9,238.2c4-3,7.9-5.9,11.9-8.9c1,1.7,2,3.3,3,5l0,0c0.7,0.7,1.3,1.3,2,2c2.1,2.7,4.3,5.4,6.4,8.1
				c-2.8,2-5.6,3.9-8.3,5.9c-1.9-1.7-3.9-3.5-5.8-5.2c-0.3-0.3-0.7-0.6-1-1c-1-0.7-2-1.4-3-2c-0.2,0.4-0.4,0.8-0.6,1.2
				c1.1,0.4,2.2,0.8,3.3,1.2c0.3,0.3,0.6,0.7,1,1c2.1,1.6,4.2,3.2,6.3,4.8c-0.6,1-1.3,2.1-1.9,3.1c-3.4-1.3-6.7-2.7-10.1-4
				c-0.3-3.4-0.4-6.7-0.9-10.1C500.8,238.8,499.6,238.5,498.9,238.2z"/>
			<path class="st22" d="M557.1,246.2c-6.1,6.3-12.2,12.6-18.4,19c-0.5-0.1-0.9-0.2-1.4-0.3c-0.9-3.5-1.8-7-2.7-10.5
				c0.4-1.2,1.1-2.4,1.1-3.6c-0.3-4.8,2.6-5.4,6.3-5.2c0.7,0,1.5,0.2,2.2,0.3c0.1-0.3,0.2-0.6,0.4-0.9c-1.4-0.9-2.8-1.8-4.4-2.7
				c1.9-0.8,3.3-1.4,4.8-2.1C548.9,242,553,244.1,557.1,246.2z"/>
			<path class="st4" d="M354.4,201.1c-3.3,0.4-6.6,0.7-8.8,1c-1.9-3-3.7-5.8-5.5-8.7c-0.4,0.2-0.9,0.4-1.3,0.7
				c0.2-1.6,0.4-3.2,0.6-4.8c-0.4,0.2-0.7,0.3-1.1,0.5c-1.2-2.2-2.4-4.4-3.6-6.6c0.3,0,0.7,0,1,0c1.3-0.3,2.7-0.7,4-1
				c0.7,0,1.3,0,2,0c1.5,2.4,3,4.7,4.4,7c6.5-2.6,11.4,0.2,11.6,6.1C356.7,197.2,355.5,199.2,354.4,201.1z"/>
			<path class="st5" d="M361.7,187.7c-0.3-4.8-0.7-9.6-1-14.5c0.4,0,0.7-0.1,1.1-0.1c3.3,0.8,6.6,1.5,9.9,2.3
				c2.1,0.9,4.1,1.8,6.2,2.7c-2,1.9-4.5,3.4-5.9,5.7c-0.9,1.5-0.7,4-0.3,5.9c0.1,0.5,2.9,0.4,4.4,0.6c2.9,0.3,5.9,0.6,8.8,0.9
				c0.2,0.3,0.5,0.7,0.7,1c-4.6,0.4-9.3,0.7-13.9,1.1C368.4,191.5,365,189.6,361.7,187.7z"/>
			<path class="st4" d="M449.3,229.1c1.5-2.2,3-4.5,4.6-6.7c0.3-0.4,0.6-0.7,0.9-1.1c3.4-4,6.8-8,10.2-12c0.3-0.2,0.6-0.4,1-0.6
				c4.4-5.1,8.7-10.2,13.1-15.2c0.4-1,0.7-2.1,1.1-3.1c3.9-4,7.7-8.1,11.6-12.1c4.6,0.3,1.5,2.3,0.8,3.7c-3,3.8-6,7.7-9,11.5
				c0,0,0,0.2,0,0.2c-1.5,1.3-3.2,2.4-4.4,3.9c-7,8.2-13.9,16.4-20.8,24.6c-0.6,0.6-1.1,1.3-1.7,1.9c-1.6,1.8-3.2,3.6-4.8,5.5
				C451,229.3,450.1,229.2,449.3,229.1z"/>
			<path class="st22" d="M406.1,211c-1.5-1-2.9-1.9-4.4-2.9c-1.4-4-3.3-7.4-8.1-7.8c0.7-1.4,1.4-2.7,2.2-4.1l0,0
				c3.8-1.7,7.7-3.4,11.5-5c1.5,3,2.9,6.1,4.4,9.1C409.8,203.9,408,207.5,406.1,211z M400.3,199.8c0,0.3,0.1,0.7,0.1,1
				c0.9-0.1,1.8-0.2,2.7-0.3c0-0.3-0.1-0.7-0.1-1C402.1,199.6,401.2,199.7,400.3,199.8z"/>
			<path class="st4" d="M511.9,253.3c0.6-1,1.3-2.1,1.9-3.1l0,0c2.8-2,5.6-3.9,8.3-5.9c1.9-1.3,3.8-2.5,5.7-3.8
				c0.7-0.4,1.4-0.9,2-1.3c0,0,0,0,0,0c2.8-2.3,5.7-4.7,8.5-7c0,0,0.3,0.1,0.3,0.1c1.7-1.1,3.5-2.1,5.2-3.2c1,0.1,1.9,0.2,2.9,0.3
				c-1,1.2-2,2.5-3,3.7c-0.7,1.2-1.4,2.5-2.2,3.7c-5.5-0.1-8.6,3.9-12.1,7.1c-1,0.7-1.9,1.3-2.9,2c-0.1,0.2-0.1,0.4,0,0.6
				c-3,2.2-6,4.3-9,6.5c-0.7,0.6-1.5,1.2-2.2,1.8C514.2,254.4,513,253.9,511.9,253.3z"/>
			<path class="st8" d="M371.7,193.3c4.6-0.4,9.3-0.7,13.9-1.1c1,3.6,2,7.2,3.1,10.7C383.1,199.8,377.4,196.5,371.7,193.3z"/>
			<path class="st23" d="M526.6,246.7c-0.1-0.2-0.1-0.4,0-0.6c1.2,1.4,2.9,2.6,3.6,4.2c1.8,4.2,3.2,8.5,4.7,12.8c-3-1.3-6-2.6-9-3.9
				c-0.1-0.9-0.1-1.9-0.2-2.8C526,253.1,526.3,249.9,526.6,246.7z"/>
			<path class="st17" d="M357.8,195.3c-0.2-5.9-5-8.7-11.6-6.1c-1.4-2.2-2.9-4.6-4.4-7c2.1,0.4,4.1,0.9,6.2,1c0.9,0.1,1.8-0.6,2.8-1
				c2.6,1.5,5.3,3.1,7.9,4.6C358.3,189.7,358.1,192.5,357.8,195.3z"/>
			<path class="st9" d="M406.1,211c1.8-3.6,3.7-7.1,5.5-10.7c1.4,3,2.7,5.9,4.1,8.9c-0.8,1.3-1.6,2.7-2.4,4
				C410.9,212.5,408.5,211.7,406.1,211z"/>
			<path class="st8" d="M489.5,244.9c2.7-2.2,5.4-4.4,8.1-6.6c0.7,3.1,1.4,6.2,2.1,9.2C496.3,246.7,492.9,245.8,489.5,244.9z"/>
			<path class="st5" d="M534.9,263.1c-1.5-4.3-2.9-8.7-4.7-12.8c-0.7-1.6-2.4-2.8-3.6-4.2c1-0.7,1.9-1.3,2.9-2
				c1.7,3.4,3.4,6.8,5.1,10.2c0.9,3.5,1.8,7,2.8,10.5C536.5,264.2,535.7,263.6,534.9,263.1z"/>
			<path class="st10" d="M393.6,200.3c4.8,0.4,6.7,3.8,8.1,7.8c-3.8-1-8.1-1.2-10-5.6C392.3,201.8,393,201.1,393.6,200.3z"/>
			<path class="st10" d="M451.9,229.5c1.6-1.8,3.2-3.6,4.8-5.5c1.4,0.6,2.7,1.3,4.1,1.9c-0.8,2.3-0.1,5.6-4.2,5.4
				C455,230.7,453.4,230.1,451.9,229.5z"/>
			<path class="st5" d="M525.7,256.3c0.1,0.9,0.1,1.9,0.2,2.8c-3.5-1.4-7-2.8-10.5-4.2c0.7-0.6,1.5-1.2,2.2-1.8
				C520.3,254.2,523,255.3,525.7,256.3z"/>
			<path class="st5" d="M499.6,247.6c-0.7-3.1-1.4-6.2-2.1-9.2c0.4-0.1,0.9-0.1,1.3-0.2c0.7,0.3,2,0.6,2,1.1
				c0.4,3.3,0.6,6.7,0.9,10.1C501.1,248.7,500.3,248.2,499.6,247.6z"/>
			<path class="st5" d="M427,219.3c-0.7-1.1-1.3-2.1-2-3.2c0.4-0.3,0.7-0.6,1.1-0.9c1.6,2,3.2,4,4.8,6
				C429.6,220.5,428.3,219.9,427,219.3z"/>
			<path class="st5" d="M393.6,200.3c-0.6,0.7-1.3,1.5-1.9,2.2c0,0-0.4,0-0.4,0c-0.2-1.4-0.4-2.8-0.6-4.1c1.7-0.7,3.4-1.4,5.1-2.1
				C395,197.6,394.3,199,393.6,200.3z"/>
			<path class="st17" d="M310.8,202.8c0.6,0,1.3,0.1,1.9,0.1C312.1,202.9,311.4,202.9,310.8,202.8z"/>
			<path class="st20" d="M509.7,337.2C509.5,336.9,509.3,336.6,509.7,337.2C509.5,336.5,509.6,336.8,509.7,337.2
				C509.8,337.2,509.7,337.2,509.7,337.2z"/>
			<path class="st16" d="M579.6,290.4c-0.3,0.6-0.6,1.2-0.9,1.8c-1.3-1-2.7-1.9-4-2.9C576.4,289.7,578,290,579.6,290.4z"/>
			<path class="st9" d="M590.6,217.5c-0.6-0.1-1.2-0.3-1.7-0.4c-0.3-3-0.7-6-1-9c1.3-0.3,2.6-0.6,3.8-0.9
				c9.4-3.4,18.7-6.7,28.1-10.1c4-1.4,7.9-2.9,11.9-4.3c0.2,0.5,0.3,0.9,0.5,1.4c-13.6,5.3-27.2,10.6-41.2,16
				c0.9,1.9,1.6,3.3,2.5,5.3c14.2-5.5,28.2-11,42.2-16.4c0.2,0.5,0.4,0.9,0.5,1.4c-14.3,5.8-28.5,12.1-43.3,16.6
				C592.2,217.3,591.4,217.4,590.6,217.5z"/>
			<path class="st9" d="M579.7,200.2c-0.7-0.6-1.3-1.2-2-1.8c6.3-2.4,12.6-4.8,19-7.2c6.5-2.4,13.1-4.8,19.7-7
				c1.7-0.6,3.4-0.8,5.5-0.1c-7.9,2.8-15.7,5.6-23.6,8.4c-5,1.8-10,3.5-15,5.5C582,198.4,580.9,199.4,579.7,200.2z"/>
			<path class="st17" d="M591.8,207.3c-1.3,0.3-2.6,0.6-3.8,0.9c-3.6,1.7-7.2,3.3-10.7,5c-1.1-0.6-2.3-1.2-3.4-1.8
				c3.9-2.4,7.8-4.8,11.7-7.1c0.7-0.1,1.5-0.1,2.2-0.2C589.1,205.1,590.4,206.2,591.8,207.3z"/>
			<path class="st9" d="M626.2,189.5c-7.5,2.7-14.9,5.4-22.4,8.1c-0.2-0.5-0.4-1.1-0.6-1.6c7.5-2.7,14.9-5.3,22.4-8
				C625.9,188.5,626,189,626.2,189.5z"/>
			<path class="st9" d="M587.7,204c-0.7,0.1-1.5,0.1-2.2,0.2c-0.3-0.3-0.5-0.6-0.8-0.9c5.3-2.2,10.5-4.3,15.8-6.5
				c0.2,0.4,0.4,0.9,0.6,1.3C596.6,200.1,592.2,202.1,587.7,204z"/>
			<path class="st23" d="M490.9,158.2c2.1-6.1,7-7.9,12.9-8c5.9,1.6,9.4,5.2,8.8,11.5c-0.2,2.2-1.9,4.2-2.9,6.4
				c-0.3-0.6-0.7-1.3-1-1.9c2.4-6.3,1.1-10.9-3.6-12.6c-4.3-1.6-8.9,0.7-10.7,5.5c-1.3,3.3-1.1,6,3.3,6.4c0.3,0.9,0.6,1.9,0.9,2.8
				c-0.2,0.7-0.5,1.3-0.7,2c-3.7-1.2-6-3.5-6-7.7C491.7,161,491.2,159.6,490.9,158.2z"/>
			<path class="st10" d="M483.5,193.4c3-3.8,6-7.7,9-11.5c0.1,1.7,0.2,3.5,0.2,5.3c0,0-0.1,0.1-0.1,0.1c-0.8,1-2.1,1.8-2.4,2.9
				c-0.3,1.3,0.1,2.9,0.3,4.4C488.2,194.2,485.9,193.8,483.5,193.4z"/>
			<path class="st10" d="M476.7,168.2c2.5,3.6,5,7.2,7.5,10.8c-0.5,0.3-0.9,0.7-1.4,1c-1.1-1.5-2.2-2.9-3.7-5
				c-2.6,0-5.6-0.8-4.4-5.7C475.4,168.9,476.1,168.6,476.7,168.2z"/>
			<path class="st18" d="M508.7,166.1c0.3,0.6,0.7,1.3,1,1.9c-3.4,4-7.5,4-11.9,2.1c0.2-0.7,0.5-1.3,0.7-2c2.4-0.1,4.8-0.2,7.3-0.2
				C506.7,167.3,507.7,166.7,508.7,166.1z"/>
			<path class="st10" d="M495.6,185.9c0,1.4,0.1,2.8,0.1,4.3c0,0,0,0,0,0c-1-1-2-2-3-3c0,0,0.1-0.1,0.1-0.1
				C493.7,186.7,494.7,186.3,495.6,185.9z"/>
			<path class="st10" d="M497.6,184.2c0.6,0,1.2,0,1.7-0.1c-0.1,0.5-0.3,1.1-0.4,1.6c-0.8-0.3-1.6-0.5-2.4-0.8
				C497,184.7,497.3,184.5,497.6,184.2z"/>
			<path class="st1" d="M527.7,161.2c-0.1,0.1-0.1,0.3-0.2,0.4C527.6,161.5,527.7,161.4,527.7,161.2
				C527.8,161.2,527.7,161.2,527.7,161.2z"/>
			<path class="st17" d="M369.8,163.2c-2.9,1-5.8,1.9-9.1,3c-0.2,0.8-0.6,2.4-1,4c-2.9-1.1-5.8-2.1-8.7-3.2
				c-0.2-0.5-0.4-0.9-0.6-1.4c1-0.4,2.1-0.8,3.9-1.5c-3.3-0.8-5.3-1.2-7.6-1.8c0.7-1.9,1.3-3.2,1.6-4.2c-1.5-2-2.8-3.8-4.2-5.6
				c0,0.1-0.1,0.1-0.1,0.2c-5.4-6.1-10.7-12.2-16.7-19.1c3.7-0.3,6.3-0.6,8.8-0.8c1.1-0.3,2.2-0.6,3.3-1c-1.2,2.5-2.3,4.9-3,6.3
				c3.2,2.9,5.9,5.3,9.1,8.1c0.2-1.8-0.3-4.3,0.7-5.9c1.1-1.8,3.4-3,5.2-4.4c0.6-0.4,1.5-0.5,2.2-0.8c0.7,1,1.3,2,2,3
				c0,0.3,0,0.6,0,0.9c-1.4,1.1-2.7,2.2-4.1,3.2c-3.3,4.1-2.7,7.2,2.1,9c2.9,1.2,5.8,2.2,8.8,3.1c9.1,2.9,18.2,5.8,27.3,8.7
				c0,0,0,0,0,0c2,0.7,4,1.4,5.9,2.1c15.5,5.3,30.9,10.6,46.4,15.9c-0.1,0.6-0.2,1.2-0.4,1.8c-0.6,0.4-1.3,0.7-1.9,1.1
				c-19.8-6.6-39.6-13.3-59.4-19.9c-3.3-1.1-6.6-2.1-10-3C370.4,161.3,370,162.5,369.8,163.2z"/>
			<path class="st10" d="M479.1,193.3c-4.4,5.1-8.7,10.2-13.1,15.2c-1.1-0.1-2.1-0.2-3.2-0.4l0,0c-2.3-3-4.7-6-7-9c0,0,0,0,0,0
				c-0.9-1.7-1.6-3.6-2.8-5.1c-3.3-4.4-6.7-8.6-10.1-12.9c1-0.6,1.9-1.3,2.9-1.9c2.9,1.2,5.8,2.4,8.7,3.7
				C462.6,186.5,470.8,189.9,479.1,193.3z"/>
			<path class="st3" d="M389.8,163.2c-9.1-2.9-18.2-5.8-27.3-8.7c-3-1-5.9-2-8.8-3.1c-4.7-1.9-5.4-5-2.1-9c4.3,6.5,12.5,5,18.2,8.8
				C376.3,155.4,383.1,159.2,389.8,163.2z"/>
			<path class="st4" d="M367.3,118.4c2.2,1.9,4.4,3.8,6.6,5.8c-0.4,6.4-0.8,12.7-1.2,19.1c-2.3-0.7-4.6-1.4-6.9-2.1
				c0-6.2-0.1-12.4,0.1-18.6C365.9,121.1,366.8,119.7,367.3,118.4z"/>
			<path class="st4" d="M355.8,139.1c0-0.3,0-0.6,0-0.9c0.3-0.7,0.7-1.3,1-2c0-5.6,0.1-11.3,0.1-16.9c0.3-1.3,0.5-2.7,0.8-4
				c2.1,0.7,4.3,1.4,6.4,2.1c-0.1,0.6-0.2,1.3-0.3,1.9c-0.1,0.1-0.3,0.2-0.3,0.3c0.1,0.2,0.2,0.4,0.3,0.7c0,1.3,0,2.7,0,4
				c-2.8,2.9-2.8,8,0,11c-0.6,1.7-1.1,3.3-1.7,5C359.9,139.9,357.8,139.5,355.8,139.1z"/>
			<path class="st5" d="M479.1,193.3c-8.2-3.4-16.4-6.9-24.6-10.3c-2.9-1.2-5.8-2.4-8.7-3.7c0.7-0.2,1.3-0.3,2-0.5
				c7.3,2.5,14.7,5,22,7.5c3.5,1.3,6.9,2.6,10.4,3.9C479.8,191.3,479.4,192.3,479.1,193.3z"/>
			<path class="st5" d="M363.7,124.2c0-1.3,0-2.7,0-4c0-0.3,0-0.6,0-0.9c0.1-0.6,0.2-1.3,0.3-1.9c0.2-0.3,0.4-0.6,0.6-0.9
				c0.9,0.6,1.8,1.3,2.7,1.9c-0.5,1.4-1.4,2.7-1.5,4.1c-0.2,6.2-0.1,12.4-0.1,18.6c-1.2-0.3-2.5-0.6-3.7-0.8c0.6-1.7,1.1-3.3,1.7-5
				C363.7,131.6,363.7,127.9,363.7,124.2z"/>
			<path class="st5" d="M442.9,181.3c3.4,4.3,6.8,8.5,10.1,12.9c1.1,1.5,1.9,3.4,2.8,5.1c-4.7-5.4-9.4-10.8-14-16.2
				c0.1-0.6,0.2-1.2,0.4-1.8C442.4,181.2,442.6,181.2,442.9,181.3z"/>
			<path class="st9" d="M372.7,143.2c0.4-6.4,0.8-12.7,1.2-19.1c0.6,0,1.2,0,1.8,0c-0.3,3.8-0.6,7.6-0.9,11.4
				c-0.3,2.6-0.7,5.2-1.1,7.9C373.3,143.3,373,143.3,372.7,143.2z"/>
			<path class="st3" d="M395.7,165.3c-2-0.7-4-1.4-5.9-2.1C391.8,163.9,393.7,164.6,395.7,165.3z"/>
			<path class="st17" d="M371.7,175.4c-3.3-0.8-6.6-1.5-9.9-2.3c0.7-0.3,1.3-0.6,2-0.9c2.2-1,4.4-1.9,7-3
				C371.1,171.4,371.4,173.4,371.7,175.4z"/>
			<path class="st7" d="M322.9,153.1c0.2,0.3,0.3,0.7,0.5,1c-0.4-0.1-0.8-0.1-1.2-0.2C322.5,153.6,322.7,153.3,322.9,153.1z"/>
			<path class="st10" d="M458.3,222.1c6.9-8.2,13.8-16.5,20.8-24.6c1.3-1.5,2.9-2.6,4.4-3.9c6.4,2.9,12.9,5.7,19.3,8.6
				c-0.6,1-1.1,1.9-1.7,2.9c-0.8,1.3-1.6,2.7-2.4,4c-1.7-1.3-3.6-2.5-5.1-4.1c-1.2-1.2-1.8-3-3.1-5.3c-2.6-0.5-22,16.4-26.9,24.7
				C461.9,223.6,460.1,222.8,458.3,222.1z"/>
			<path class="st5" d="M538.6,232.4c0,0-0.3-0.1-0.3-0.1c-2.5-0.7-5-1.4-7.5-2l0,0c-0.7-0.3-1.4-0.7-2-1c0.1-0.1,0.1-0.2,0.2-0.3
				c-0.1,0.1-0.1,0.2-0.2,0.4c-3.4-0.1-3.5,2.1-2.6,4.3c0.9,2.1,2.4,3.8,3.6,5.7c0,0,0,0,0,0c-0.7,0.4-1.4,0.9-2,1.3
				c-1.9,1.3-3.8,2.5-5.7,3.8c-2.1-2.7-4.3-5.4-6.4-8.1c0.8-0.1,1.6-0.2,3.1-0.5c-1.9-3.1-3.5-5.8-5.1-8.5c2.1-1.4,4.2-2.9,6.3-4.3
				c3.3,0.8,6.5,1.6,9.8,2.4c1.6,1.1,3.2,2.1,4.7,3.3C536,229.8,537.2,231.1,538.6,232.4z"/>
			<path class="st17" d="M593.9,231.1c0.6,1.5,1.2,3,1.9,4.6c-11.9-3.8-23.9-7.6-35.8-11.5c-4.5-1.5-8.9-3.3-13.3-5
				c1.7-0.4,3.5-0.9,5.2-1.3c5,1.6,10.1,3.2,15.1,4.8C575.9,225.5,584.9,228.3,593.9,231.1z"/>
			<path class="st4" d="M551.8,218c-1.7,0.4-3.5,0.9-5.2,1.3c-9.4-3-18.9-5.9-28.3-8.9c-1.6-0.5-3.1-1.1-4.7-1.6
				c-0.3-1.2-0.6-2.3-0.9-3.5C525.8,209.5,538.8,213.7,551.8,218z"/>
			<path class="st10" d="M543.8,233.2c1-1.2,2-2.5,3-3.7c3.7,1.8,7.4,3.6,11.1,5.4c0,1.1,0,2.2,0.1,3.3c-1.7,0.7-3.5,1.4-5.2,2.2
				c-0.3-0.3-0.7-0.6-1-0.9c0-1.1,0-2.1,0-3.2c-0.2-0.1-0.5-0.1-0.7-0.2c-0.4,1-0.8,1.9-1.2,2.9
				C547.8,237.1,545.8,235.2,543.8,233.2z"/>
			<path class="st17" d="M512.7,205.2c0.3,1.2,0.6,2.3,0.9,3.5c-4.2-1.2-8.3-2.4-12.5-3.6c0.6-1,1.1-1.9,1.7-2.9
				c0.6-0.4,1.2-0.7,1.7-1.1c0,0,0.3,0.1,0.3,0.1C507.5,202.6,510.1,203.9,512.7,205.2z"/>
			<path class="st8" d="M538.6,232.4c-1.3-1.3-2.6-2.6-4.1-3.7c-1.5-1.2-3.1-2.2-4.7-3.3c4.7,1.3,9.3,2.6,14,3.8
				C542.1,230.3,540.3,231.3,538.6,232.4z"/>
			<path class="st23" d="M565.8,237.1c-0.6,3.4-1.7,6-5.9,4.1c-0.4-2-0.7-4.1-1-6.1C561.1,235.8,563.4,236.4,565.8,237.1z"/>
			<path class="st9" d="M558.8,235.1c0.3,2,0.7,4.1,1,6.1c0,0-0.1,0.1-0.1,0.1c-0.6-1-1.2-2-1.8-3.1c0-1.1,0-2.2-0.1-3.3
				C558.1,235,558.4,235.1,558.8,235.1z"/>
			<path class="st3" d="M512.7,205.2c-2.6-1.3-5.2-2.6-7.8-4c4.7,0.8,9.5,1.4,14.1,2.5c8.8,2,17.5,4.3,26.3,6.5
				c3.8,1,7.6,2,11.3,3.2c6.5,2.1,13,5.8,19.6,5.9c6.2,0.1,10.1,3.9,15.4,5c0.8,2.3,1.5,4.6,2.3,6.8c-9-2.8-18-5.6-26.9-8.4
				c-5-1.6-10.1-3.2-15.1-4.8C538.8,213.7,525.8,209.5,512.7,205.2z"/>
			<path class="st5" d="M504.6,201.1c-0.6,0.4-1.2,0.7-1.7,1.1c-6.4-2.9-12.9-5.7-19.3-8.6c0,0,0-0.2,0-0.2c2.4,0.4,4.7,0.7,7.1,1.1
				c0.7,0.3,1.4,0.5,2.2,0.8l0.4,0l0.4,0l0,0.1c1.2,0.3,2.5,0.8,3.7,0.8c1.1,0,2.3-0.6,3.4-1c1.1,1.3,2.2,2.6,3.3,3.9
				C504.2,199.8,504.4,200.5,504.6,201.1z"/>
			<path class="st23" d="M577.2,213.2c3.6-1.7,7.2-3.3,10.7-5c0.3,3,0.7,6,1,9C585,215.8,581.1,214.5,577.2,213.2z"/>
			<path class="st5" d="M551.7,239.4c0.3,0.3,0.7,0.6,1,0.9c2.1,1.6,4.1,3.2,6.2,4.8c-0.6,0.4-1.2,0.7-1.8,1.1
				c-4.1-2.1-8.2-4.1-12.2-6.2c-1.1-1-2.2-2-3.2-3c0.7-1.2,1.4-2.5,2.2-3.7c2,1.9,4,3.9,6,5.8C550.4,239.2,551,239.3,551.7,239.4z"
				/>
			<path class="st11" d="M558.9,245.1c-2.1-1.6-4.1-3.2-6.2-4.8c1.7-0.7,3.5-1.4,5.2-2.2c0.6,1,1.2,2,1.8,3.1
				C559.4,242.5,559.1,243.8,558.9,245.1z"/>
			<path class="st1" d="M332.3,123.6c-0.8-1.2-1.6-2.3-2.4-3.5C330.7,121.2,331.5,122.4,332.3,123.6z"/>
			<path class="st10" d="M500.7,195.3c-1.1,0.3-2.3,0.9-3.4,1c-1.2,0-2.5-0.5-3.7-0.8c0.7-1.7,1.4-3.5,2.1-5.2c0,0,0,0,0,0
				c1.5-1.2,3-2.3,4.5-3.5c0.4,0.3,0.9,0.6,1.3,1C501.3,190.2,501,192.8,500.7,195.3z"/>
			<path class="st17" d="M356.8,119.3c0,5.6-0.1,11.3-0.1,16.9C356.8,130.6,356.8,124.9,356.8,119.3z"/>
			<path class="st4" d="M356.8,113.2c0.3,0.4,0.5,0.8,0.8,1.2C357.3,114.1,357.1,113.6,356.8,113.2z"/>
			<path class="st13" d="M581.7,295.2c-0.3,0-0.7,0-1,0C581.1,295.2,581.4,295.2,581.7,295.2z"/>
			<path class="st24" d="M282.2,352.3c-6.4-9.4-13-18.7-19.5-28c-6.3-8.6-12.6-17.3-18.9-25.9c-0.9-1.2-11.5-16.7-12-17.4
				c-15.6-23.7-31.3-47.2-46.8-71c-2.5-3.9-9.2-15.8-10.4-17.7c-1.3-2.1-1.3-4.7-2-7c-0.3-0.7-0.7-1.3-1-2c-0.3-0.7-0.6-1.3-1-2
				c0-0.7,0-1.3,0-2c-1-1.6-3-3.4-2.8-4.8c1.4-7.6,3.3-15.1,5-22.7c0.3-1.2,2.3-4.6,3-5.2c0.6-0.4,18.4-20,17.7-20.4
				c-21.5,14.6-43.1,29.2-64.6,43.8c0.1,0.4,0.3,0.8,0.4,1.2c7.2-0.6,14.4-1.3,21.7-1.9c0.1,0.4,0.3,0.8,0.4,1.2
				c-7,5.7-14,11.4-21,17.1c0.2,0.2,0.3,0.5,0.5,0.7c9.7-1.6,19.4-3.1,30.4-4.9c-6.1,7.3-11.4,13.7-17.6,21.1c8.3,0,15,0,22.3,0
				c-1.2,3.4-2.1,6.2-3.2,9.3c6.2,1.1,12,2.1,18.7,3.3c-0.9,1.4-2.6,12.6,1.8,24.6c5.5,15.3,18.2,32.6,26.4,40.8
				c7.5,7.5,15.8,14.3,23.5,21.6c8.7,8.3,17.1,16.8,25.6,25.2c8.3,9,16.7,18,25,27C283.2,354.9,283,353.4,282.2,352.3z M181.1,213.7
				c-0.5-0.8-1-1.6-1.4-2.5c-0.6-0.1-1.1-0.4-1.7-0.6c0.6,0.2,1.1,0.4,1.7,0.6C180.1,212.1,180.6,212.9,181.1,213.7
				c0.5,0.8,1.2,1.5,1.8,2.3C182.3,215.2,181.7,214.5,181.1,213.7z"/>
			<path class="st15" d="M421.8,413.1c6.9,4.8,14.1,8.9,23,8c0,0,0,0,0,0c2.9,0.1,5.8,0.1,8.8,0.2c0.1-0.6,13.9-5.4,18.2-7.1
				c2.3-2,4.7-4,7-6c0.4-0.6,0.7-1.3,1.1-1.9c1.4-5.3,5.5-7.9,10.1-10c0,0,0,0,0,0c2-1.7,4-3.4,6-5.1c7.3-7.7,14.6-15.4,21.9-23.1
				l0,0c4.4-4.6,8.7-9.3,13.1-13.9c6.1-6.3,12.3-12.6,18.3-19c8-8.6,15.8-17.4,23.6-26.1c-0.1-3.8-1.4-7.4,0.9-11.5
				c1.1-1.9-1.1-5.6-1.8-8.6c-3.7-1-7.4-2-11-3c1.3,1.2,2.8,2.3,3.7,3.7c0.7,1,1.2,3,0.7,3.5c-0.7,0.8-2.4,0.7-5,1.2
				c1.1,2.4,2.3,4.9,3.6,7.5c-9-2.9-10.4-4.1-10.5-8c-4.5-1.7-8.5-3.3-13.8-5.4c-2.3,1.5-5.9,6.4-11.4,1.5c0.1-0.4,0.3-1.4,0.6-3
				c-4.1,1.2-7.6,2.2-10.6,3.1c-3.2-2.8-6.5-3.7-10.4-3c-2.7,0.4-5.4,0.4-8.1,0.9c-1.2,0.2-2.2,1.2-3.4,1.5
				c-1.7,0.4-3.6,0.4-5.4,0.6c-0.1,1.7-0.2,3.5-0.2,5.2c0.1-1.7,0.1-3.5,0.2-5.2c0.3-1,0.7-2,1-3c-0.2-1.8-0.5-3.5-0.8-5.8
				c-2.1,0.7-4.1,1.5-7.1,2.6c-0.4-4.1-0.7-7.9-1.1-11.7c-2,0.2-3.9,0.7-5.9,0.7c-3.6,0-7.3,1.8-10.3-2.4c-1-1.4-4.4-1.3-6.7-1.5
				c-5-0.4-10.1-0.6-16-0.9c0.7,3.3,1.3,6.2,1.9,9c0.5,0.7,1.1,1.3,1.6,2c-0.5-0.7-1.1-1.3-1.6-2c-1.7,1-3.3,2-5,3
				c-3.3-2.9-6.6-5.8-10.3-9.1c0.9,3.1,1.7,5.8,2.7,9.2c-2.6-0.6-4.2-0.9-6.1-1.3c0.1,1.2,0.2,2.3,0.3,3.7c-1.3-0.1-2.5-0.2-3.7-0.4
				c0,0,0,0,0,0c-0.9,0-1.8,0-2.8,0c-0.4,0-0.7-0.1-1.1-0.1c-2.7-3.7-5.3-7.3-8-11c-1.7-2.7-3.4-5.3-5-8c-1.3,1.1-2.5,2.5-4.1,3.2
				c-1.1,0.5-2.7,0-4-0.1c0.2-1,0.1-2.4,0.8-3.1c2.1-2.3,2.1-3.8-0.9-5.3c-0.8-0.4-1.2-1.8-1.8-2.7c-0.7-0.3-1.3-0.7-2-1
				c-0.4,1.2-0.8,2.5-1.3,3.7c-0.6-0.9-1.2-1.8-1.7-2.7c-0.7,0-1.3,0-2,0c-7,1.8-10.3,7.9-16.1,12.8c2.3,0.5,3.5,0.7,4.8,1
				c-0.1,1.9-0.3,3.8-0.4,6c-5-2.7-7-6.8-6.5-12.1c-1.8,1-3.2,1.9-5,2.9c-0.4,5.6-7.8,3.3-9.9,7.7c1.4,0.1,3.1,0.2,6,0.3
				c-2.7,2.1-4.5,3.5-6.8,5.2c-1.4-3.1-2.8-6-4.1-9c-0.3,0-0.7,0-1,0c-0.4,1-0.7,1.9-1.1,2.9c0.4-1,0.8-2,1.1-2.9c-0.3-1-0.7-2-1-3
				c-0.7,0-1.3,0-2,0c-1-0.3-2-0.7-3-1c-3.1,2.8-5.9,6.3-9.4,8.2c-1.7,1-5-0.9-7.6-1.5c0.5-1.9,1-3.9,1.4-5.8c0.4,0,0.8,0,1.3-0.1
				c-1.6-2-3.1-3.9-4.7-5.9c-0.5,0.8-0.9,2.2-1.5,2.2c-5.2,0.4-10.4,0.6-15.5,0.9c-0.2-0.6-0.5-1.1-0.7-1.7c1.6-1,3.2-2,5-3
				c-1.5-1-2.5-4.6-6.1-2c-0.3,0.2-2.4-1.2-2.6-2.1c-0.3-1.3,0.3-2.9,0.5-4.3c-1.7,0.3-3.3,0.7-5,1c0.2,0.3,0.3,0.5,0.3,0.7
				c0.2,0.3,0.2,0.3,0,0c-0.1-0.1-0.2-0.4-0.3-0.7c-0.4-3.5-2.1-4.3-5.5-3.1c-3,1.1-6.2,1.4-9.3,2c0.2-0.4,0.4-0.8,0.6-1.2
				c-1.1-0.7-2.2-1.9-3.3-1.9c-4.4,0.3-8.9,2.5-13.1-1.1c-1.1-1-3-1.1-4.5-1.6c-1.7-2-3.3-4-5-6c-1.3-0.3-2.6-0.7-4-1
				c0,0-0.1,0.1-0.1,0.1c1.1,1.6,14.5,17.4,20.1,23.7c0.6,0.4,6.3,6.7,8.6,9.3c4.5,5.3,15.1,16.9,15.8,17.6
				c5.9,5.8,11.7,11.6,17.5,17.4c0,0,0,0,0,0c0.3,0.3,0.7,0.7,1,1c0,0,0,0,0,0c2,0,4,0.1,2.1,2.9c12.2,13.1,24.5,26.2,36.7,39.3
				c8.7,9.3,17.5,18.6,26.3,27.8c10.9,11.4,22,22.6,33,33.9C418.4,411.9,420.1,412.5,421.8,413.1 M291.7,259.8c-0.3-0.5-0.6-1-1-1.5
				l0,0c0.5,0.3,1,0.6,1.5,1C292.1,259.4,291.9,259.6,291.7,259.8z M351,281.9c2.4,0,4.2,0,6.1,0C354.4,286.2,354.1,286.2,351,281.9
				z M436.5,356.6c0.1-0.1,0.1-0.2,0.2-0.4c0,0,0,0,0,0C436.7,356.3,436.6,356.5,436.5,356.6z M440.7,361.3L440.7,361.3L440.7,361.3
				C440.8,361.2,440.7,361.3,440.7,361.3z M489.6,357.2L489.6,357.2C489.6,357.2,489.6,357.2,489.6,357.2
				C489.6,357.2,489.6,357.2,489.6,357.2z M509.8,337.2L509.8,337.2L509.8,337.2c-0.1-0.2-0.1-0.3-0.1-0.4
				C509.7,336.9,509.7,337.1,509.8,337.2z"/>
			<path class="st15" d="M252.6,234.2c1,0.4,2.1,0.7,3.1,1.1c0,1,0,1.9,0,2.9c0,0-0.1,0.1-0.1,0.1
				C254.6,237,253.6,235.6,252.6,234.2z"/>
			<path class="st16" d="M304.7,251.2c4.1,0,8.1,0,11.9,0c1.1-5.2,1.8-9,2.8-13.6c3.6,2.4,6.5,4.2,9.5,6.2c-0.4,1.4-0.8,2.8-1.4,5.2
				c8.1-5.3,7.5,3.8,10.8,5.4c-0.8,1.5-1.7,3.1-2.6,4.7c0.5,1.1,0.9,2.3,1.6,3.8c-1-0.1-1.7,0.1-2.2-0.2c-0.9-0.6-1.7-1.5-2.5-2.2
				c-2.4-2.4-5.8-2-6.9,0.7c-0.5,0.8-0.9,2.2-1.5,2.2c-5.2,0.4-10.4,0.6-15.5,0.9c-0.2-0.6-0.5-1.1-0.7-1.7c1.6-1,3.2-2,5-3
				c-1.5-1-2.5-4.6-6.1-2c-0.3,0.2-2.4-1.2-2.6-2.1C304,254.3,304.5,252.7,304.7,251.2z"/>
			<path class="st13" d="M325.8,261.2c1.1-2.7,4.5-3,6.9-0.7c0.8,0.8,1.6,1.6,2.5,2.2c0.4,0.3,1.2,0.1,2.2,0.2
				c-0.6-1.5-1.1-2.6-1.6-3.8c1,0,2,0,3,0c1,0.7,2,1.3,3,2c1.5,0.3,3,0.5,4.9,0.8c-0.6,1.4-1.2,2.8-1.8,4.1
				c-3.1,2.8-5.9,6.3-9.4,8.2c-1.7,1-5-0.9-7.6-1.5c0.5-1.9,1-3.9,1.4-5.8c0.4,0,0.8,0,1.3-0.1C328.9,265.1,327.3,263.2,325.8,261.2
				z"/>
			<path class="st16" d="M290.7,258.2c0.5,0.3,1,0.6,1.5,1c-0.2,0.2-0.4,0.4-0.6,0.6C291.4,259.3,291.1,258.7,290.7,258.2
				C290.7,258.2,290.7,258.2,290.7,258.2z"/>
			<path class="st14" d="M564.5,289.8c-1-1.4-2.5-2.5-3.7-3.7c-1-0.6-1.9-1.4-3-1.7c-15.7-4.1-31.3-8.1-47-12.2c-1-0.3-2-0.6-3-0.9
				c-13.4-3.7-26.9-7.5-40.3-11.1c-24.3-6.6-48.7-13.3-73.1-19.8c-29.2-7.8-58.4-15.5-87.6-23.3c-23.1-6.2-46.1-12.5-69.2-18.8
				c-0.7,4-1.3,8-2,12c1.5,2.2,2.9,4.4,4.4,6.5c4.2,5.8,8.4,11.6,12.5,17.4c1,0.4,2.1,0.7,3.1,1.1c0,1,0,1.9,0,2.9
				c1.3,0.3,2.6,0.7,4,1c1.7,2,3.3,4,5,6c1.5,0.5,3.4,0.6,4.5,1.6c4.2,3.7,8.6,1.4,13.1,1.1c1-0.1,2.2,1.2,3.3,1.9
				c-0.2,0.4-0.4,0.8-0.6,1.2c3.1-0.6,6.3-0.9,9.3-2c3.4-1.2,5.1-0.4,5.5,3.1c1.7-0.3,3.3-0.7,5-1c4.1,0,8.1,0,11.9,0
				c1.1-5.2,1.8-9,2.8-13.6c3.6,2.4,6.5,4.2,9.5,6.2c-0.4,1.4-0.8,2.8-1.4,5.2c8.1-5.3,7.5,3.8,10.8,5.4c-0.8,1.5-1.7,3.1-2.6,4.7
				c1,0,2,0,3,0c1,0.7,2,1.3,3,2c1.5,0.3,3,0.5,4.9,0.8c-0.6,1.4-1.2,2.8-1.8,4.1c1,0.3,2,0.7,3,1c1.5-1,3.9-1.6,4.4-3
				c0.9-2.4,0.7-5.2,1-8.6c3.5-0.8,2.5-3.7,0.6-6.7c1.9-1.2,6.2,1.6,4.9-2.2c4.9,1.1,9.9,2.3,15.3,3.5c0.2,1,0.5,2.6,0.9,4.9
				c5.4-5.1,10.1-1.8,14.9,0c0.7,0,1.3,0,2,0c1-0.3,2-0.7,3-1c0.7,0.3,1.3,0.7,2,1c5-1.7,5.2-1.6,6.2,2.3c2.5,0.9,4.6,1.6,7.7,2.7
				c-2.1,1.6-3,2.3-3.9,3.1c1.7,2.7,3.4,5.3,5,8c2.9-1,5.1-0.2,6.1,2.9c0.8,2.7,1.3,5.4,1.9,8.1c0.4,0,0.7,0.1,1.1,0.1
				c0.9,0,1.8,0,2.8,0c1.2,0.1,2.4,0.2,3.7,0.4c-0.1-1.4-0.2-2.5-0.3-3.7c1.9,0.4,3.5,0.7,6.1,1.3c-1-3.4-1.8-6.1-2.7-9.2
				c3.8,3.3,7,6.2,10.3,9.1c1.7-1,3.3-2,5-3c-0.6-2.8-1.2-5.7-1.9-9c5.9,0.3,11,0.5,16,0.9c2.3,0.2,5.7,0.1,6.7,1.5
				c3,4.1,6.7,2.4,10.3,2.4c2,0,3.9-0.4,5.9-0.7c0,0,0,0,0,0c0.3,3.8,0.7,7.7,1.1,11.7c3-1.1,5.1-1.8,7.1-2.6c0.3,2.3,0.6,4,0.8,5.8
				c-0.3,1-0.7,2-1,3c1.8-0.2,3.6-0.2,5.4-0.6c1.2-0.3,2.2-1.3,3.4-1.5c2.7-0.4,5.4-0.4,8.1-0.9c3.9-0.6,7.3,0.3,10.4,3
				c3-0.9,6.5-1.9,10.6-3.1c-0.3,1.6-0.5,2.6-0.6,3c5.4,5,9,0.1,11.4-1.5c5.4,2.1,9.3,3.6,13.8,5.4c0.1,3.8,1.6,5.1,10.5,8
				c-1.2-2.6-2.4-5.1-3.6-7.5c2.6-0.5,4.3-0.4,5-1.2C565.7,292.8,565.1,290.8,564.5,289.8z"/>
			<path class="st16" d="M341.7,261.2c-1-0.7-2-1.3-3-2C339.7,259.9,340.7,260.6,341.7,261.2z"/>
			<path class="st4" d="M285.3,150.1c6.7,0,11.7,4.9,11.6,11.6c0,6.7-5,11.6-11.7,11.6c-6.2,0-11.3-5.1-11.5-11.4
				C273.6,155.3,278.8,150.1,285.3,150.1z M292.5,165.2c1.7-5.5,0.3-9.2-4.2-11.1c-3.5-1.5-8,0.1-9.9,3.4c-2.2,3.9-0.8,8.3,3.2,10.9
				C286.6,170.9,289.1,170.1,292.5,165.2z"/>
			<path class="st2" d="M297,175.4c-5.3,6.4-15.1,6.9-21.9,0.6c7.5,4.1,14.6,3.1,21.5-1L297,175.4z"/>
			<path class="st2" d="M299.6,172.1c0.6-1.6,1.2-3.1,1.8-4.7c0.5,0.2,1,0.5,1.5,0.7c-1,1.4-1.9,2.8-2.9,4.2L299.6,172.1z"/>
			<path class="st18" d="M270.2,180.6c-0.7-0.4-1.3-0.8-2-1.2C268.8,179.8,269.5,180.2,270.2,180.6z"/>
			<path class="st2" d="M299.9,172.4c-0.2,0.4-0.5,0.8-0.7,1.2c-0.1-0.1-0.4-0.3-0.3-0.3c0.2-0.4,0.4-0.8,0.7-1.2
				C299.6,172.1,299.9,172.4,299.9,172.4z"/>
			<path class="st2" d="M296.6,175.1c0.2-0.1,0.4-0.2,0.7-0.3c-0.1,0.2-0.2,0.4-0.3,0.7C297,175.4,296.6,175.1,296.6,175.1z"/>
			<path class="st18" d="M171.7,183.3c-0.3-0.7-0.6-1.3-1-2C171.1,181.9,171.4,182.6,171.7,183.3z"/>
			<path class="st17" d="M339.7,182.2c-1.3,0.3-2.7,0.7-4,1C337.1,182.9,338.4,182.6,339.7,182.2z"/>
			<path class="st5" d="M458.3,222.1c1.8,0.8,3.5,1.6,5.3,2.3c4.8,2.5,9.5,5.1,14.3,7.6c-0.2,0.2-0.3,0.4-0.5,0.6
				c-5.6-2.2-11.1-4.4-16.7-6.6c-1.4-0.6-2.7-1.3-4.1-1.9C457.2,223.4,457.8,222.7,458.3,222.1z"/>
			<path class="st5" d="M479.6,233.4c-0.7-0.3-1.4-0.6-2.1-0.9c0.2-0.2,0.3-0.4,0.5-0.6c0.7,0.3,1.4,0.6,2.1,0.9
				C479.9,233.1,479.7,233.3,479.6,233.4z"/>
			<path class="st5" d="M482.8,233.4c-0.4,0.3-0.7,0.5-1.1,0.8C482,234,482.4,233.7,482.8,233.4z"/>
			<path class="st5" d="M480.1,232.9c0.1,0.3,0.1,0.7,0.2,1c-0.2-0.2-0.4-0.3-0.7-0.5C479.7,233.3,479.9,233.1,480.1,232.9z"/>
			<path class="st10" d="M441.7,183c4.7,5.4,9.4,10.8,14,16.2c0,0,0,0,0,0c2.3,3,4.7,6,7,9c0,0,0,0,0,0c0.7,0.3,1.5,0.7,2.2,1
				c-3.4,4-6.8,8-10.2,12c-0.4,0-0.7,0-1.1,0c0,0,0,0,0,0c-11.3-5.3-22.7-10.7-34-16c1.6-1.8,3.4-3.5,4.8-5.4c1.5-2,2.8-4.3,4.2-6.5
				c1.3-0.8,2.6-1.6,3.9-2.4c2.4-2.3,4.8-4.5,7.2-6.8C440.5,183.7,441.1,183.4,441.7,183z"/>
			<path class="st3" d="M439.8,184.1c-2.4,2.3-4.8,4.5-7.2,6.8c-9.5-4-19.1-7.9-28.6-11.9c-2.1-1.2-4.1-2.3-6.2-3.5
				c-9.3-4.1-18.7-8.2-28-12.3c0.2-0.7,0.6-2,0.6-1.9c3.3,0.9,6.7,1.9,10,3C400.2,170.8,420,177.5,439.8,184.1z"/>
			<path class="st8" d="M384.9,191.2c-2.9-0.3-5.9-0.6-8.8-0.9c-1.5-0.2-4.3-0.1-4.4-0.6c-0.4-1.9-0.7-4.4,0.3-5.9
				c1.4-2.2,3.9-3.8,5.9-5.7c5.1-0.2,5.5,3.7,6.2,7.3C384.5,187.3,384.7,189.3,384.9,191.2z"/>
			<path class="st10" d="M409.6,187.3c-0.9,0.8-4-1.6-3.1,2c-6,0.3-12,0.7-17.9,1c-0.9-3.1-1.9-6.2-3.1-10
				C394.1,182.9,401.9,185.1,409.6,187.3z"/>
			<path class="st11" d="M395.8,196.3c-1.7,0.7-3.4,1.4-5.1,2.1c-0.4-1.4-0.8-2.8-1.2-4.2c3.3-4.7,7.9-2.2,12-2.3
				C399.6,193.3,397.7,194.8,395.8,196.3L395.8,196.3z"/>
			<path class="st5" d="M395.8,196.2c1.9-1.5,3.8-2.9,5.8-4.4c-4.1,0.1-8.7-2.4-12,2.3c-0.3-1.3-0.7-2.5-1-3.8c6-0.3,12-0.7,17.9-1
				c0.3,0.6,0.5,1.2,0.8,1.8C403.4,192.9,399.6,194.6,395.8,196.2z"/>
			<path class="st17" d="M397.8,175.5c2.1,1.2,4.1,2.3,6.2,3.5c-1,0.7-1.9,1.3-2.9,2C400,179.2,398.9,177.4,397.8,175.5z"/>
			<path class="st10" d="M410.8,187.4c-0.4,0-0.7,0-1.1,0C410,187.4,410.4,187.4,410.8,187.4z"/>
			<path class="st8" d="M513.7,227.3c1.6,2.7,3.2,5.3,5.1,8.5c-1.6,0.2-2.3,0.3-3.1,0.5c-0.7-0.7-1.3-1.3-2-2
				c0.1,0.1,0.2,0.1,0.3,0.2c-0.1-0.1-0.2-0.1-0.3-0.2c-1-1.7-2-3.3-3-5C511.7,228.6,512.7,228,513.7,227.3z"/>
			<path class="st4" d="M340.5,201.7c0.3,0.1,0.5,0.2,0.7,0.3c-0.1,0.2-0.2,0.6-0.3,0.7c-0.2,0.1-0.5-0.2-0.7-0.3
				C340.3,202.2,340.4,202,340.5,201.7z"/>
			<path class="st5" d="M417.5,208.1c0.7-0.9,1.5-1.9,2.2-2.8c11.3,5.3,22.7,10.7,34,16c-5.5-2.1-11.1-4.1-16.6-6.4
				c-4.9-2-9.6-4.3-15.3-6.9c0.5,1.9,0.8,3,1,4.1c-0.2,0.1-0.3,0.3-0.5,0.4C420.8,211,419.2,209.5,417.5,208.1z"/>
			<path class="st5" d="M422.9,212.1c0.1,0.5,0.2,1,0.3,1.6c-0.3-0.4-0.5-0.8-0.8-1.2C422.6,212.3,422.8,212.2,422.9,212.1z"/>
			<path class="st5" d="M453.7,221.2c0.4,0,0.7,0,1.1,0c-0.3,0.4-0.6,0.7-0.9,1.1C453.8,222,453.8,221.6,453.7,221.2z"/>
			<path class="st5" d="M513.8,250.2c-2.1-1.6-4.2-3.2-6.3-4.8c0.1-0.1,0.3-0.3,0.4-0.4C509.9,246.8,511.8,248.5,513.8,250.2
				C513.7,250.3,513.8,250.2,513.8,250.2z"/>
			<path class="st5" d="M506.5,244.5c-1.1-0.4-2.2-0.8-3.3-1.2c0.2-0.4,0.4-0.8,0.6-1.2c1,0.7,2,1.4,3,2
				C506.8,244.2,506.7,244.3,506.5,244.5z"/>
			<path class="st5" d="M507.5,245.5c-0.3-0.3-0.6-0.7-1-1c0.1-0.1,0.2-0.2,0.4-0.4c0.3,0.3,0.7,0.6,1,0.9
				C507.8,245.2,507.6,245.3,507.5,245.5z"/>
			<path class="st12" d="M541.6,237c1.1,1,2.2,2,3.2,3c-1.4,0.6-2.9,1.3-4.8,2.1c1.6,1,3,1.9,4.4,2.7c-0.1,0.3-0.2,0.6-0.4,0.9
				c-0.7-0.1-1.5-0.2-2.2-0.3c-3.7-0.2-6.6,0.4-6.3,5.2c0.1,1.2-0.7,2.4-1.1,3.6c-1.7-3.4-3.4-6.8-5.1-10.2
				C533,240.9,536.1,236.9,541.6,237z"/>
			<path class="st5" d="M465,209.2c-0.7-0.3-1.5-0.7-2.2-1c1.1,0.1,2.1,0.2,3.2,0.4C465.6,208.8,465.3,209,465,209.2z"/>
			<path class="st10" d="M400.3,199.8c0.9-0.1,1.8-0.2,2.7-0.3c0,0.3,0.1,0.7,0.1,1c-0.9,0.1-1.8,0.2-2.7,0.3
				C400.4,200.5,400.4,200.2,400.3,199.8z"/>
			<path class="st8" d="M529.8,239.3c-1.2-1.9-2.8-3.7-3.6-5.7c-0.9-2.2-0.8-4.4,2.6-4.3l0,0c0.7,0.3,1.4,0.7,2,1
				c0.1,0.1,0.2,0.1,0.4,0.2c-0.1-0.1-0.3-0.1-0.4-0.2c2.5,0.7,5,1.4,7.5,2C535.5,234.6,532.6,236.9,529.8,239.3z"/>
			<path class="st10" d="M525.7,256.3c-2.7-1.1-5.4-2.1-8.1-3.2c3-2.2,6-4.3,9-6.5C526.3,249.9,526,253.1,525.7,256.3z"/>
			<path class="st8" d="M527.8,240.6c0.7-0.4,1.4-0.9,2-1.3C529.1,239.7,528.4,240.1,527.8,240.6z"/>
			<path class="st17" d="M508.7,166.1c-1,0.6-1.9,1.2-2.9,1.8c0.1-2.1,0-4.3,0.4-6.4c0.6-3.5-1.1-4.5-4.1-4.3
				c-5.8,0.3-3.8,4.9-4.4,8.1c-4.4-0.4-4.6-3-3.3-6.4c1.9-4.8,6.4-7.1,10.7-5.5C509.8,155.2,511.1,159.8,508.7,166.1z"/>
			<path class="st6" d="M497.6,165.3c0.6-3.2-1.4-7.8,4.4-8.1c3-0.1,4.7,0.9,4.1,4.3c-0.4,2.1-0.3,4.2-0.4,6.4
				c-2.4,0.1-4.8,0.2-7.3,0.2C498.2,167.2,497.9,166.3,497.6,165.3z"/>
			<path class="st12" d="M495.7,190.2c-0.7,1.7-1.4,3.5-2.1,5.2c0,0,0-0.1,0-0.1c-0.1-0.4-0.1-0.9-0.3-2c-0.3,1.1-0.4,1.5-0.5,2
				c-0.7-0.3-1.4-0.5-2.2-0.8c-0.1-1.5-0.6-3-0.3-4.4c0.3-1.1,1.5-1.9,2.4-2.9C493.7,188.3,494.7,189.3,495.7,190.2z"/>
			<path class="st5" d="M462.8,208.2c-2.3-3-4.7-6-7-9C458.1,202.2,460.4,205.2,462.8,208.2z"/>
			<path class="st17" d="M363.7,124.2c0,3.7,0,7.3,0,11C360.9,132.2,360.9,127.2,363.7,124.2z"/>
			<path class="st17" d="M363.7,119.3c0.1,0.3,0.1,0.6,0,0.9c-0.1-0.2-0.3-0.4-0.3-0.7C363.4,119.5,363.6,119.4,363.7,119.3z"/>
			<path class="st8" d="M528.8,229.2c0.1-0.1,0.1-0.2,0.2-0.4C528.9,229,528.8,229.1,528.8,229.2
				C528.7,229.2,528.8,229.2,528.8,229.2z"/>
			<path class="st11" d="M551.7,239.4c-0.6-0.1-1.2-0.3-1.9-0.4c0.4-1,0.8-1.9,1.2-2.9c0.2,0.1,0.5,0.1,0.7,0.2
				C551.7,237.3,551.7,238.4,551.7,239.4z"/>
			<path class="st10" d="M492.8,195.3c0.1-0.4,0.2-0.9,0.5-2c0.2,1.1,0.2,1.6,0.3,2c0,0-0.4,0-0.4,0L492.8,195.3z"/>
			<path class="st11" d="M281.6,168.5c-4.1-2.6-5.4-7.1-3.2-10.9c1.9-3.3,6.4-4.9,9.9-3.4c4.5,1.9,5.9,5.6,4.2,11.1
				c-0.6-0.7-1.2-1.4-1.8-2.1c-0.6-1.9-0.8-4.4-2.1-5.6c-2.3-2.2-5.3-2-7.4,0.8c-2.8,3.7-1.1,6.5,2.2,8.7
				C282.8,167.4,282.2,167.9,281.6,168.5z"/>
			<path class="st8" d="M281.6,168.5c0.6-0.5,1.2-1,1.8-1.5c2.4-1.3,4.8-2.6,7.2-3.8c0.6,0.7,1.2,1.4,1.8,2.1
				C289.1,170.1,286.6,170.9,281.6,168.5z"/>
			<path class="st10" d="M513.8,234.2c0.1,0.1,0.2,0.1,0.3,0.2C514,234.4,513.9,234.3,513.8,234.2
				C513.7,234.2,513.8,234.2,513.8,234.2z"/>
			<path class="st5" d="M530.7,230.2c0.1,0.1,0.3,0.1,0.4,0.2C531,230.4,530.9,230.3,530.7,230.2
				C530.8,230.2,530.7,230.2,530.7,230.2z"/>
			<path class="st6" d="M290.7,163.1c-2.4,1.3-4.8,2.6-7.2,3.8c-3.3-2.3-5-5-2.2-8.7c2.1-2.7,5-3,7.4-0.8
				C289.9,158.7,290,161.2,290.7,163.1z"/>
		</g>
	</g>
</g>
<g id="Stein_1_">
	
		<image style="overflow:visible;opacity:0.22;" width="301" height="353" xlink:href="57FB49C0C0B04E89.png"  transform="matrix(1 0 0 1 272.748 318.2262)">
	</image>
	<g>
		<g>
			<defs>
				<circle id="SVGID_5_" cx="419.7" cy="469" r="75.7"/>
			</defs>
			<clipPath id="SVGID_6_">
				<use xlink:href="#SVGID_5_"  style="overflow:visible;"/>
			</clipPath>
			<g style="clip-path:url(#SVGID_6_);">
				
					<image style="overflow:visible;" width="768" height="1019" id="Stein_8_" xlink:href="../../../../EVANGELIZO/Communication Exte패rieure/Vide패o animation Orawa PROD/edith stein.jpg"  transform="matrix(1 0 0 1 280.748 334.2262)">
				</image>
			</g>
		</g>
	</g>
</g>
<g id="Newman_1_">
	
		<image style="overflow:visible;opacity:0.45;" width="295" height="304" xlink:href="57FB49C0C0B04E8B.png"  transform="matrix(1 0 0 1 135.0781 259.1129)">
	</image>
	<g>
		<g>
			<defs>
				<circle id="SVGID_7_" cx="270.2" cy="401.3" r="78.5"/>
			</defs>
			<clipPath id="SVGID_8_">
				<use xlink:href="#SVGID_7_"  style="overflow:visible;"/>
			</clipPath>
			<g style="clip-path:url(#SVGID_8_);">
				
					<image style="overflow:visible;" width="2356" height="2453" id="Newman_8_" xlink:href="../../../../EVANGELIZO/Communication Exte패rieure/Vide패o animation Orawa PROD/John henry newman.jpg"  transform="matrix(0.24 0 0 0.24 280.748 334.2262)">
				</image>
			</g>
		</g>
	</g>
</g>
</svg>
